<svg id="레이어_1" data-name="레이어 1" xmlns="http://www.w3.org/2000/svg" xmlns:xlink="http://www.w3.org/1999/xlink" viewBox="0 0 726.29 386.86"><defs><clipPath id="clip-path" transform="translate(0 118.26)"><rect x="104.63" width="702" height="214" style="fill:none"/></clipPath><linearGradient id="무제_그라디언트_7" x1="15.39" y1="101.86" x2="220" y2="101.86" gradientUnits="userSpaceOnUse"><stop offset="0" stop-color="#920783"/><stop offset="1" stop-color="#171c61"/></linearGradient><linearGradient id="무제_그라디언트_7-2" x1="87.64" y1="131.88" x2="148.85" y2="131.88" xlink:href="#무제_그라디언트_7"/></defs><title>커리</title><rect y="118.26" width="702" height="214" style="fill:#fff"/><text y="118.26"/><g style="clip-path:url(#clip-path)"><rect x="320.95" y="-89.07" width="83.62" height="359.04" transform="translate(84.9 -41.43) rotate(27.99)" style="fill:#9f2c4e"/><rect x="444.11" y="-96.47" width="83.62" height="366.91" transform="translate(97.67 -99.64) rotate(27.99)" style="fill:#e39840"/><rect x="563.89" y="-86.68" width="83.62" height="356.51" transform="translate(113.84 -155.32) rotate(27.99)" style="fill:#1f5c89"/></g><path d="M373.19,60.46a5.42,5.42,0,0,1-1.31,3.9,5,5,0,0,1-3.82,1.36,5.1,5.1,0,0,1-3.83-1.36,5.38,5.38,0,0,1-1.32-3.9V58.81a6.65,6.65,0,0,1,.47-2.61,3.58,3.58,0,0,1,1.55-1.72v-.06a3.42,3.42,0,0,1-1.49-1.59,6.17,6.17,0,0,1-.47-2.6v-.65a5.46,5.46,0,0,1,1.29-3.9,5,5,0,0,1,3.8-1.37,5,5,0,0,1,3.79,1.37,5.46,5.46,0,0,1,1.28,3.9v.65q0,3.1-2,4.19v.06a3.58,3.58,0,0,1,1.55,1.72,6.65,6.65,0,0,1,.47,2.61Zm-7-.09a2.5,2.5,0,0,0,.54,1.88,2.07,2.07,0,0,0,2.65,0,2.54,2.54,0,0,0,.54-1.88V58.44a2.74,2.74,0,0,0-.49-1.81,1.72,1.72,0,0,0-1.37-.56,1.79,1.79,0,0,0-1.38.56,2.68,2.68,0,0,0-.49,1.81Zm.08-9.51a2.43,2.43,0,0,0,.48,1.75,1.79,1.79,0,0,0,1.31.47,1.82,1.82,0,0,0,1.29-.47,2.33,2.33,0,0,0,.51-1.75V49.69a2.64,2.64,0,0,0-.51-1.89,1.8,1.8,0,0,0-1.29-.5,1.75,1.75,0,0,0-1.29.5,2.69,2.69,0,0,0-.5,1.89Z" transform="translate(0 118.26)" style="fill:#fff"/><path d="M378.54,58.09V55.53H375V52.71h11.19v2.82h-4.5v2.56Zm1.88-5.81a8.91,8.91,0,0,1-1.89-.19,5.15,5.15,0,0,1-1.61-.66,3.34,3.34,0,0,1-1.13-1.2,3.67,3.67,0,0,1-.41-1.79v-.17a3.59,3.59,0,0,1,.43-1.81,3.55,3.55,0,0,1,1.12-1.22,5,5,0,0,1,1.61-.69,8.4,8.4,0,0,1,1.88-.21,8.58,8.58,0,0,1,1.9.21,4.93,4.93,0,0,1,1.62.69,3.55,3.55,0,0,1,1.12,1.22,3.59,3.59,0,0,1,.43,1.81v.17a3.46,3.46,0,0,1-.43,1.79,3.28,3.28,0,0,1-1.14,1.2,5.11,5.11,0,0,1-1.62.66A9,9,0,0,1,380.42,52.28ZM376,61.54h10.65V61H376V58.44h13.89v5.49H379.28V64c0,.19.05.31.13.36a.78.78,0,0,0,.38.07h10.43v2.62H378.66a2.68,2.68,0,0,1-2-.65,2.64,2.64,0,0,1-.67-2Zm6.35-13.16a1,1,0,0,0-.57-1,3.27,3.27,0,0,0-1.4-.27,3.22,3.22,0,0,0-1.39.27,1,1,0,0,0-.57,1,.9.9,0,0,0,.57.94,3.58,3.58,0,0,0,1.39.23,3.63,3.63,0,0,0,1.4-.23A.9.9,0,0,0,382.39,48.38Zm7.54-3.9V58.09h-3.24v-.31H383v-2h3.65V44.48Z" transform="translate(0 118.26)" style="fill:#fff"/><path d="M470.69,64.38h3.08a4.65,4.65,0,0,0,.82-.08,1.92,1.92,0,0,0,.76-.33,1.74,1.74,0,0,0,.54-.69,2.84,2.84,0,0,0,.2-1.14V59.7h0a2.82,2.82,0,0,1-1,.67,4.37,4.37,0,0,1-1.4.2,3.72,3.72,0,0,1-3-1.16,5,5,0,0,1-1-3.38V52a5,5,0,0,1,1.26-3.65,4.76,4.76,0,0,1,3.55-1.27A4.66,4.66,0,0,1,478,48.38,5.06,5.06,0,0,1,479.2,52V62.24A4.86,4.86,0,0,1,477.9,66a5.31,5.31,0,0,1-3.75,1.2h-3.46Zm3.67-6.65a1.75,1.75,0,0,0,1.22-.46,2,2,0,0,0,.51-1.51V51.84a2,2,0,0,0-.44-1.48,1.78,1.78,0,0,0-1.21-.39,1.87,1.87,0,0,0-1.21.39,1.83,1.83,0,0,0-.49,1.48v3.94a1.92,1.92,0,0,0,.5,1.5A1.63,1.63,0,0,0,474.36,57.73Z" transform="translate(0 118.26)" style="fill:#fff"/><path d="M480.52,58.19a8.21,8.21,0,0,1,1.8-2,3,3,0,0,1,1.75-.61,3.47,3.47,0,0,1,1,.19,5.74,5.74,0,0,1,1.35.73,11.31,11.31,0,0,0,1.06.64,1.4,1.4,0,0,0,.65.17,1.52,1.52,0,0,0,.42-.06A1.59,1.59,0,0,0,489,57a3.35,3.35,0,0,0,.48-.5c.18-.21.4-.48.65-.81l1.7,1.49a8.24,8.24,0,0,1-1.67,1.93,2.75,2.75,0,0,1-1.73.61,3.55,3.55,0,0,1-1.07-.2,5.51,5.51,0,0,1-1.39-.75,10.17,10.17,0,0,0-1.06-.62,1.51,1.51,0,0,0-.65-.16,1.44,1.44,0,0,0-.87.32,6.32,6.32,0,0,0-1.1,1.3Z" transform="translate(0 118.26)" style="fill:#fff"/><path d="M493.8,51.24l4.59-3.92h2.54V67.19H497.8V51.43l-2.33,1.81Z" transform="translate(0 118.26)" style="fill:#fff"/><path d="M504.72,52.08a5.2,5.2,0,0,1,1.21-3.7,5.44,5.44,0,0,1,7.06,0,5.2,5.2,0,0,1,1.21,3.7V62.41a5.22,5.22,0,0,1-1.21,3.7,5.44,5.44,0,0,1-7.06,0,5.22,5.22,0,0,1-1.21-3.7Zm3.11,10.54a2,2,0,0,0,.44,1.5,1.79,1.79,0,0,0,2.37,0,2.13,2.13,0,0,0,.43-1.5V51.89a2.22,2.22,0,0,0-.43-1.53,1.82,1.82,0,0,0-2.37,0,2.12,2.12,0,0,0-.44,1.53Z" transform="translate(0 118.26)" style="fill:#fff"/><path d="M519.42,60.16V57.73H516V55.05h10.62v2.68h-4.27v2.43Zm1.78-5.51a7.92,7.92,0,0,1-1.79-.19,4.73,4.73,0,0,1-1.53-.62,3.16,3.16,0,0,1-1.07-1.14,3.45,3.45,0,0,1-.39-1.7v-.16a3.34,3.34,0,0,1,.41-1.72A3.38,3.38,0,0,1,517.89,48a4.4,4.4,0,0,1,1.53-.65,7.53,7.53,0,0,1,1.78-.2,7.64,7.64,0,0,1,1.8.2,4.37,4.37,0,0,1,1.54.65,3.41,3.41,0,0,1,1.07,1.16,3.45,3.45,0,0,1,.41,1.72V51a3.34,3.34,0,0,1-.41,1.7,3.28,3.28,0,0,1-1.08,1.14,4.79,4.79,0,0,1-1.54.62A8.11,8.11,0,0,1,521.2,54.65ZM517,63.43h10.11V63H517V60.49h13.19V65.7H520.12v.11c0,.18,0,.29.12.34a.9.9,0,0,0,.37.07h9.89V68.7h-11a2.51,2.51,0,0,1-1.85-.62,2.45,2.45,0,0,1-.64-1.86Zm6-12.48a1,1,0,0,0-.54-1,3.51,3.51,0,0,0-2.65,0,1,1,0,0,0-.54,1,.86.86,0,0,0,.54.89,4.29,4.29,0,0,0,2.65,0A.86.86,0,0,0,523.07,51Zm7.16-3.71V60.16h-3.08v-.29h-3.46V58h3.46V47.24Z" transform="translate(0 118.26)" style="fill:#fff"/><path d="M587.64,52.24l4.59-3.92h2.54V68.19h-3.13V52.43l-2.33,1.81Z" transform="translate(0 118.26)" style="fill:#fff"/><path d="M599.13,52.24l4.59-3.92h2.54V68.19h-3.13V52.43l-2.33,1.81Z" transform="translate(0 118.26)" style="fill:#fff"/><path d="M609.32,59.19a8.2,8.2,0,0,1,1.79-2,3,3,0,0,1,1.75-.61,3.47,3.47,0,0,1,1,.19,6,6,0,0,1,1.36.73,10.25,10.25,0,0,0,1,.64,1.4,1.4,0,0,0,.65.17,1.52,1.52,0,0,0,.42-.06,1.59,1.59,0,0,0,.42-.25,3.35,3.35,0,0,0,.48-.5c.18-.21.4-.48.65-.81l1.7,1.49a8.24,8.24,0,0,1-1.67,1.93,2.73,2.73,0,0,1-1.73.61,3.61,3.61,0,0,1-1.07-.2,5.69,5.69,0,0,1-1.39-.75,10.17,10.17,0,0,0-1.06-.62,1.51,1.51,0,0,0-.64-.16,1.45,1.45,0,0,0-.88.32,6.32,6.32,0,0,0-1.1,1.3Z" transform="translate(0 118.26)" style="fill:#fff"/><path d="M622.59,52.24l4.59-3.92h2.54V68.19h-3.13V52.43l-2.33,1.81Z" transform="translate(0 118.26)" style="fill:#fff"/><path d="M634.51,48.32h3.57c3.24,0,4.86,1.68,4.86,5.09a9.17,9.17,0,0,1-.18,1.86,6.66,6.66,0,0,1-.6,1.74A10.7,10.7,0,0,1,641,58.84c-.48.63-1.09,1.33-1.81,2.11a17,17,0,0,0-1.13,1.32,8.21,8.21,0,0,0-.68,1,3.46,3.46,0,0,0-.33.84,2.88,2.88,0,0,0-.1.78,2.17,2.17,0,0,0,0,.43h5.81v2.84h-8.92V65.76a8.79,8.79,0,0,1,.13-1.58,6.26,6.26,0,0,1,.49-1.5,8.77,8.77,0,0,1,.93-1.54,19.26,19.26,0,0,1,1.45-1.71,20.5,20.5,0,0,0,1.46-1.71,9.35,9.35,0,0,0,.9-1.46,5,5,0,0,0,.46-1.37,8.4,8.4,0,0,0,.13-1.48c0-1.52-.73-2.28-2.17-2.28h-3.13Z" transform="translate(0 118.26)" style="fill:#fff"/><path d="M648.21,61.16V58.73h-3.38V56.05h10.63v2.68h-4.28v2.43ZM650,55.65a8,8,0,0,1-1.8-.19,4.73,4.73,0,0,1-1.53-.62,3.16,3.16,0,0,1-1.07-1.14,3.45,3.45,0,0,1-.39-1.7v-.16a3.45,3.45,0,0,1,.41-1.72A3.38,3.38,0,0,1,646.68,49a4.4,4.4,0,0,1,1.53-.65,8.11,8.11,0,0,1,3.58,0,4.37,4.37,0,0,1,1.54.65,3.41,3.41,0,0,1,1.07,1.16,3.45,3.45,0,0,1,.41,1.72V52a3.34,3.34,0,0,1-.41,1.7,3.28,3.28,0,0,1-1.08,1.14,4.7,4.7,0,0,1-1.54.62A8.09,8.09,0,0,1,650,55.65Zm-4.17,8.78h10.11V64H645.83V61.49H659V66.7H648.91v.11c0,.18,0,.29.13.34a.82.82,0,0,0,.36.07h9.89V69.7h-11a2.51,2.51,0,0,1-1.85-.62,2.45,2.45,0,0,1-.64-1.86Zm6-12.48a1,1,0,0,0-.54-1,3.51,3.51,0,0,0-2.65,0,1,1,0,0,0-.54,1,.86.86,0,0,0,.54.89,4.29,4.29,0,0,0,2.65,0A.86.86,0,0,0,651.86,52ZM659,48.24V61.16h-3.08v-.29h-3.46V59h3.46V48.24Z" transform="translate(0 118.26)" style="fill:#fff"/><path d="M30.28,119.25H24A8.47,8.47,0,0,1,17.6,117q-2.21-2.25-2.21-6.71V92.52c0-3,.74-5.25,2.21-6.74A8.54,8.54,0,0,1,24,83.55h6v5.52H24.36a2.68,2.68,0,0,0-2.11.91,4.13,4.13,0,0,0-.78,2.74V110a4.55,4.55,0,0,0,.68,2.76,3,3,0,0,0,2.46.89h5.67ZM52,83.55V111.2a9.15,9.15,0,0,1-2.25,6.63,8.46,8.46,0,0,1-6.36,2.33,8.49,8.49,0,0,1-6.4-2.33,9.15,9.15,0,0,1-2.26-6.63V83.55h6v28a3.49,3.49,0,0,0,.76,2.54,2.81,2.81,0,0,0,2.07.75,2.66,2.66,0,0,0,2-.75,3.69,3.69,0,0,0,.71-2.54v-28Zm15.39,25.07a3.58,3.58,0,0,0-.76-2.59,3.09,3.09,0,0,0-2.27-.75H62.53v14H56.46V83.55h8.3a9,9,0,0,1,6.53,2.26q2.33,2.25,2.33,6.55v4.1c0,3.08-.89,5.37-2.68,6.89a4.13,4.13,0,0,1,2,2,9.17,9.17,0,0,1,.58,3.59v10.28H67.39Zm-4.86-8.86h2.08a3.08,3.08,0,0,0,2.1-.74,3.18,3.18,0,0,0,.84-2.5V92.31a3.14,3.14,0,0,0-.84-2.55,3.2,3.2,0,0,0-2.1-.69H62.53Zm26.69,8.86a3.63,3.63,0,0,0-.76-2.59,3.13,3.13,0,0,0-2.28-.75H84.36v14H78.28V83.55h8.3a9,9,0,0,1,6.53,2.26c1.56,1.5,2.33,3.68,2.33,6.55v4.1c0,3.08-.89,5.37-2.68,6.89a4.13,4.13,0,0,1,1.95,2,9,9,0,0,1,.58,3.59v10.28H89.22Zm-4.86-8.86h2.07a3.06,3.06,0,0,0,2.1-.74,3.18,3.18,0,0,0,.84-2.5V92.31a3.14,3.14,0,0,0-.84-2.55,3.18,3.18,0,0,0-2.1-.69H84.36Zm16.3,19.49V83.55h6.08v35.7Zm25.87,0H120.2a8.5,8.5,0,0,1-6.35-2.25q-2.2-2.25-2.2-6.71V92.52c0-3,.73-5.25,2.2-6.74a8.57,8.57,0,0,1,6.35-2.23h6v5.52h-5.57a2.65,2.65,0,0,0-2.1.91,4.07,4.07,0,0,0-.79,2.74V110a4.48,4.48,0,0,0,.69,2.76,2.92,2.92,0,0,0,2.45.89h5.67Zm21.72-35.7V111.2a9.15,9.15,0,0,1-2.25,6.63,9.9,9.9,0,0,1-12.76,0A9.15,9.15,0,0,1,131,111.2V83.55h6v28a3.54,3.54,0,0,0,.76,2.54,2.84,2.84,0,0,0,2.08.75,2.63,2.63,0,0,0,2-.75,3.64,3.64,0,0,0,.71-2.54v-28Zm10.54,27a3.73,3.73,0,0,0,.63,2.53,3.31,3.31,0,0,0,2.4.66h6v5.52h-7.39c-2.77,0-4.76-.65-6-2s-1.8-3.5-1.8-6.61V83.55h6.08Zm29.82-27V111.2a9.11,9.11,0,0,1-2.26,6.63,8.43,8.43,0,0,1-6.35,2.33,8.53,8.53,0,0,1-6.41-2.33,9.15,9.15,0,0,1-2.25-6.63V83.55h6v28a3.49,3.49,0,0,0,.76,2.54,2.8,2.8,0,0,0,2.07.75,2.67,2.67,0,0,0,2-.75,3.69,3.69,0,0,0,.71-2.54v-28Zm18,27.85,4.31-27.85H220v35.7h-5.57v-29L210,117.53a1.8,1.8,0,0,1-1.92,1.72h-3.19a1.85,1.85,0,0,1-1.19-.35,2.6,2.6,0,0,1-.68-1.37l-4.46-27v28.71H193V83.55h9.12Z" transform="translate(0 118.26)" style="fill:url(#무제_그라디언트_7)"/><path d="M99.33,140.33v-9.62H95.39a4.31,4.31,0,0,1-.53,1.33,6.24,6.24,0,0,1-1.17,1.35,16.23,16.23,0,0,1-2,1.53q-1.23.84-3.12,1.89l-.89-1.46c1-.58,1.93-1.1,2.64-1.55a18,18,0,0,0,1.76-1.26,6.37,6.37,0,0,0,1-1.06,3.37,3.37,0,0,0,.51-1l-5.93.17,0-1.54,6.11-.11v-2.64H88v-1.55h7.57v4.27h3.77v-5.8h1.82v17Zm6.59-9.3v3.62h1.73l1.68,0c.51,0,1,0,1.45-.07s.91-.06,1.35-.11.9-.1,1.38-.17l.16,1.53-1.3.17-1.42.13-1.68.08c-.61,0-1.3,0-2.06,0h-3.1V129.5h5.8v-3.27h-5.86v-1.57h7.67V131Zm9.21,9.3v-17H117v17Zm19.24-10.56v1.52h-4.28v2h2v4.3h-9.34V139h9.84v1.5H121v-4.33h9.35v-1.34h-9.44v-1.5H123v-2h-4.28v-1.52H130c.05-.28.09-.56.12-.83l.09-.81-9.46.24,0-1.53,9.57-.13V125.3H121v-1.55h11.19v2.5c0,.44,0,1-.07,1.61s-.11,1.27-.21,1.91Zm-9.51,3.51h3.4v-2h-3.4Zm10.77-.79v-5H141v-1.88h-5.37v-1.55h7.18V129h-5.37v1.91h2.66q.72,0,1.44,0l1.48-.08,1.62-.15.16,1.51-1.48.15c-.48,0-1,.07-1.46.09s-1,0-1.58,0h-4.65Zm13.22,1.75v6.08H138.23v-6.08ZM140,138.76h7v-3h-7Zm7-5.35v-4.63h-3v-1.57h3v-3.9h1.81v10.1Z" transform="translate(0 118.26)" style="fill:url(#무제_그라디언트_7-2)"/><path d="M342.23,90.81q3.3,0,3.3,3.36v19h-3.24V95.45a1.51,1.51,0,0,0-.4-1.19,1.86,1.86,0,0,0-1.23-.34h-2.59V90.81Zm9-.17v22.49H348V90.64Z" transform="translate(0 118.26)" style="fill:#fff"/><path d="M361.7,97.59v.48a3,3,0,0,1,1.46.77,3.81,3.81,0,0,1,.94,1.51l2.16,6.24H363l-1.88-5.27a1,1,0,0,0-.93-.77H360a1,1,0,0,0-.94.77l-1.94,5.27H353.9l2.25-6.24a3.46,3.46,0,0,1,.93-1.44,3.52,3.52,0,0,1,1.38-.78v-.54h-4.24v-3H366v3Zm-7.77,15.54V110h4.53v-5.12h3.24V110h4.5v3.1ZM363.9,90v3.11h-7.49V90Z" transform="translate(0 118.26)" style="fill:#fff"/><path d="M464.62,107.46h-3.25L463,98.09a2.61,2.61,0,0,1,1-1.78,3.39,3.39,0,0,1,2-.58h.83a3.27,3.27,0,0,1,2,.62,2.71,2.71,0,0,1,1,1.74l1.63,9.37h-3.25l-1.34-8a1.81,1.81,0,0,0-.14-.43.28.28,0,0,0-.26-.17h-.2c-.21,0-.34.2-.4.6Zm-1.57,4.69h10.14v-1H463.05v-2.77h13.38v6.24H466.3v.4q0,.48.51.48h9.94v2.79H465.67a2.67,2.67,0,0,1-1.95-.65,2.63,2.63,0,0,1-.67-2Zm13.38-16.42v11.73h-3.24V95.73Z" transform="translate(0 118.26)" style="fill:#fff"/><path d="M481.79,109.22h-3.25l1.79-6.38a2.89,2.89,0,0,1,1.91-2.13V98.86h-3.1v-3h9.57v3h-3.19v1.85a3,3,0,0,1,1.93,2.13l1.74,6.38h-3.27l-1.37-5a1,1,0,0,0-.19-.44.5.5,0,0,0-.41-.16h-.14a.48.48,0,0,0-.4.15,1.19,1.19,0,0,0-.2.45Zm1.93,9q-3.53,0-3.53-3.36v-4h3.25v3.33a1.17,1.17,0,0,0,.25.88,1.38,1.38,0,0,0,.89.23h6V104.47h-2.19v-3.11h2.19V95.73h3.28v22.49Z" transform="translate(0 118.26)" style="fill:#fff"/><path d="M558.83,171.43v-3.1h2.56v-9.51h3.27v9.51h5.53v3.1Zm7.66-22.32q3.3,0,3.3,3.36v13.58h-3.25v-12.3a1.48,1.48,0,0,0-.4-1.19,1.81,1.81,0,0,0-1.22-.34h-5.81v-3.11Z" transform="translate(0 118.26)" style="fill:#fff"/><path d="M582.77,149.11c2.2,0,3.31,1.12,3.31,3.36v6.07h1.3v3.13H572.07v-3.13h10.76v-4.79a1.48,1.48,0,0,0-.4-1.19,1.81,1.81,0,0,0-1.22-.34h-7.83v-3.11Zm-6.52,15.12h6.92v-1.45h3.19v5.47a4.15,4.15,0,0,1-.27,1.62,2.19,2.19,0,0,1-.76,1,3.05,3.05,0,0,1-1.12.47,7.72,7.72,0,0,1-1.41.12h-5.95a8.93,8.93,0,0,1-1.52-.12,3,3,0,0,1-1.2-.49,2.3,2.3,0,0,1-.77-1,4.15,4.15,0,0,1-.27-1.62v-5.44h3.16Zm6.92,2.59h-6.92v.74a1.48,1.48,0,0,0,.1.6.59.59,0,0,0,.27.27,1.06,1.06,0,0,0,.42.07h5.33a1.08,1.08,0,0,0,.43-.07.55.55,0,0,0,.27-.27,1.33,1.33,0,0,0,.1-.6Z" transform="translate(0 118.26)" style="fill:#fff"/><path d="M441.94,171.43a4.59,4.59,0,0,1-3-1,3.27,3.27,0,0,1-1.2-2.72v-.26a3.2,3.2,0,0,1,1.2-2.69,4.75,4.75,0,0,1,3-.92h.86V163H437V159.9h15.32V163H446v.88h1.17a5.17,5.17,0,0,1,1.58.24,4.38,4.38,0,0,1,1.34.7,3.36,3.36,0,0,1,.93,1.12,3.5,3.5,0,0,1,.34,1.55v.26a3.59,3.59,0,0,1-.34,1.57,3.47,3.47,0,0,1-.93,1.15,4.2,4.2,0,0,1-1.34.71,5.17,5.17,0,0,1-1.58.24Zm6.67-19.36a5.06,5.06,0,0,1,.24.46l.21.48,2.54,6H448l-2.33-6a1.24,1.24,0,0,0-.32-.51.74.74,0,0,0-.48-.14h-.4c-.34,0-.6.22-.77.65l-2.59,6h-3.42l2.62-6,.22-.48a2.54,2.54,0,0,1,.24-.46h-2.56v-3h13v3ZM441,167.73c0,.48.41.71,1.23.71H447c.81,0,1.22-.23,1.22-.71v-.17c0-.45-.41-.68-1.22-.68h-4.73c-.82,0-1.23.23-1.23.68Z" transform="translate(0 118.26)" style="fill:#fff"/><path d="M464.75,149.11q3.3,0,3.3,3.36v6.07h1.31v3.13H454.05v-3.13h10.76v-4.79a1.47,1.47,0,0,0-.4-1.19,1.83,1.83,0,0,0-1.22-.35h-7.83v-3.1Zm-6.52,15.12h6.92v-1.45h3.19v5.47a4.15,4.15,0,0,1-.27,1.62,2.19,2.19,0,0,1-.76,1,3.05,3.05,0,0,1-1.12.47,7.72,7.72,0,0,1-1.41.12h-5.95a8.93,8.93,0,0,1-1.52-.12,3,3,0,0,1-1.2-.49,2.3,2.3,0,0,1-.77-1,4.15,4.15,0,0,1-.27-1.62v-5.44h3.16Zm6.92,2.59h-6.92v.74a1.33,1.33,0,0,0,.1.6.59.59,0,0,0,.27.27,1,1,0,0,0,.41.07h5.34a1.08,1.08,0,0,0,.43-.07.59.59,0,0,0,.27-.27,1.33,1.33,0,0,0,.1-.6Z" transform="translate(0 118.26)" style="fill:#fff"/><path d="M317.17,143.2q3.3,0,3.3,3.36v19h-3.24V147.84a1.54,1.54,0,0,0-.4-1.2,1.92,1.92,0,0,0-1.23-.34H313v-3.1Zm9-.17v22.49h-3.25V143Z" transform="translate(0 118.26)" style="fill:#fff"/><path d="M336.64,150v.48a2.92,2.92,0,0,1,1.46.77,3.81,3.81,0,0,1,.94,1.51L341.2,159H338l-1.88-5.26a1,1,0,0,0-.93-.77h-.23a1,1,0,0,0-.94.77L332,159h-3.19l2.25-6.23a3.46,3.46,0,0,1,.93-1.44,3.52,3.52,0,0,1,1.38-.78V150h-4.24v-3h11.73v3Zm-7.77,15.54v-3.1h4.53v-5.13h3.24v5.13h4.5v3.1Zm10-23.12v3.1h-7.49v-3.1Z" transform="translate(0 118.26)" style="fill:#fff"/><path d="M583.27,118.22H573v-3.1h1.14V99h-1.2V95.9h10.34V99H582v16.12h1.29ZM578.79,99h-1.5v16.12h1.5Zm8.8-3.27v9.36h1.66v3.11h-1.66v10h-3.27V95.73Z" transform="translate(0 118.26)" style="fill:#fff"/><path d="M590.75,100.62A4.93,4.93,0,0,1,592.06,97,5.18,5.18,0,0,1,599,97a4.89,4.89,0,0,1,1.31,3.64V113A5,5,0,0,1,599,116.7a5.16,5.16,0,0,1-6.89,0,5,5,0,0,1-1.31-3.66ZM594,113a2.08,2.08,0,0,0,.45,1.52,1.43,1.43,0,0,0,1,.44,1.36,1.36,0,0,0,1-.44A2.12,2.12,0,0,0,597,113V100.62a2.09,2.09,0,0,0-.44-1.51,1.42,1.42,0,0,0-1-.42,1.5,1.5,0,0,0-1,.42,2,2,0,0,0-.45,1.51Zm11.53-17.31v22.49h-3.27V95.73Z" transform="translate(0 118.26)" style="fill:#fff"/><path d="M612.31,107.66a4,4,0,0,1-3-1,4.74,4.74,0,0,1-.9-3.29V95.73h3.24v7.43a1.44,1.44,0,0,0,.33,1.11,1.47,1.47,0,0,0,1,.28h4.79v3.11Zm-2.19,4.5h9.51v-1h-9.51v-2.77h12.75v6.24h-9.51v.4q0,.48.51.48h9.31v2.79H612.74a2.32,2.32,0,0,1-2.62-2.62Zm12.75-16.43v11.93h-3.24V101.9h-3.85V98.77h3.85v-3Z" transform="translate(0 118.26)" style="fill:#fff"/><path d="M281.35,104.14l1.74-3.33q2.37-4.55,7.13-2a10.23,10.23,0,0,1,1.65,1.08,7.89,7.89,0,0,1,1.33,1.42,12.15,12.15,0,0,1,1.13,2c.35.76.71,1.67,1.08,2.72.24.68.47,1.25.68,1.71a7.61,7.61,0,0,0,.63,1.13,4.27,4.27,0,0,0,.61.73,3.65,3.65,0,0,0,.69.47,2.57,2.57,0,0,0,.41.19l2.85-5.43,2.65,1.39-4.37,8.32-2.27-1.19a9,9,0,0,1-1.41-.9,6.26,6.26,0,0,1-1.16-1.19,9.52,9.52,0,0,1-1-1.62,20,20,0,0,1-.88-2.18,18.44,18.44,0,0,0-.89-2.2,10.05,10.05,0,0,0-.91-1.56,5.52,5.52,0,0,0-1.05-1.1,8,8,0,0,0-1.33-.84q-2.12-1.11-3.18.9L284,105.52Z" transform="translate(0 118.26)" style="fill:#9f2c4e"/><path d="M290.92,96.69a5.5,5.5,0,0,1-2.86-3,5.73,5.73,0,0,1,3.46-6.58,5.49,5.49,0,0,1,4.05.68l9.63,5.06a5.47,5.47,0,0,1,2.85,2.94,5.72,5.72,0,0,1-3.45,6.58,5.48,5.48,0,0,1-4.05-.67ZM302.27,99a2.18,2.18,0,0,0,1.62.32,1.66,1.66,0,0,0,1-.88,1.64,1.64,0,0,0,.17-1.33,2.23,2.23,0,0,0-1.19-1.13l-10-5.26a2.24,2.24,0,0,0-1.63-.34,1.88,1.88,0,0,0-1.16,2.2,2.22,2.22,0,0,0,1.21,1.17Z" transform="translate(0 118.26)" style="fill:#9f2c4e"/><path d="M292.6,82.71l1.74-3.33q2.37-4.55,7.13-2a10.23,10.23,0,0,1,1.65,1.08,7.89,7.89,0,0,1,1.33,1.42,12.15,12.15,0,0,1,1.13,2c.35.76.71,1.67,1.08,2.72.24.69.47,1.26.68,1.71a7.61,7.61,0,0,0,.63,1.13,3.91,3.91,0,0,0,.61.73,3.65,3.65,0,0,0,.69.47,2.57,2.57,0,0,0,.41.19l2.85-5.42,2.65,1.39-4.37,8.32-2.27-1.2a9,9,0,0,1-1.41-.9A6.5,6.5,0,0,1,306,89.77a10,10,0,0,1-1-1.63,20,20,0,0,1-.88-2.18,19.16,19.16,0,0,0-.89-2.2,10.05,10.05,0,0,0-.91-1.56,5.52,5.52,0,0,0-1.05-1.1,8,8,0,0,0-1.33-.84q-2.12-1.11-3.18.91l-1.53,2.92Z" transform="translate(0 118.26)" style="fill:#9f2c4e"/><path d="M298.22,72,300,68.67q2.36-4.55,7.12-2a10.8,10.8,0,0,1,1.66,1.08,7.21,7.21,0,0,1,1.32,1.42,11.1,11.1,0,0,1,1.14,2c.35.76.71,1.67,1.08,2.72.24.68.46,1.25.67,1.71a10,10,0,0,0,.63,1.13,3.84,3.84,0,0,0,.62.72,3.33,3.33,0,0,0,.68.48,2.69,2.69,0,0,0,.42.18l2.85-5.42L320.8,74l-4.37,8.32-2.26-1.19a8.11,8.11,0,0,1-1.41-.9,6.25,6.25,0,0,1-1.16-1.19,8.39,8.39,0,0,1-1-1.62,18.91,18.91,0,0,1-.88-2.18,21.43,21.43,0,0,0-.89-2.21,10.2,10.2,0,0,0-.92-1.56,5.46,5.46,0,0,0-1.05-1.09,8.32,8.32,0,0,0-1.32-.84c-1.42-.75-2.47-.44-3.18.9l-1.54,2.93Z" transform="translate(0 118.26)" style="fill:#9f2c4e"/><path d="M253.61,155.57l1.82-3.29q2.44-4.5,7.16-1.9a9.69,9.69,0,0,1,1.63,1.11,7.62,7.62,0,0,1,1.3,1.45,11.29,11.29,0,0,1,1.09,2c.33.77.67,1.69,1,2.75.23.69.44,1.26.64,1.72a8.31,8.31,0,0,0,.61,1.14,3.69,3.69,0,0,0,.6.74,3.3,3.3,0,0,0,.67.49,2.57,2.57,0,0,0,.41.19l3-5.35,2.61,1.44-4.54,8.23-2.24-1.24a9.88,9.88,0,0,1-1.39-.93,6.36,6.36,0,0,1-1.14-1.22,9.43,9.43,0,0,1-.95-1.64,22,22,0,0,1-.83-2.2,20.31,20.31,0,0,0-.84-2.22,10,10,0,0,0-.88-1.58,5.3,5.3,0,0,0-1-1.12,9.3,9.3,0,0,0-1.31-.87c-1.39-.77-2.46-.49-3.19.84L256.2,157Z" transform="translate(0 118.26)" style="fill:#9f2c4e"/><path d="M263.34,148.32a5.52,5.52,0,0,1-2.8-3,5.74,5.74,0,0,1,3.6-6.5,5.5,5.5,0,0,1,4,.76l9.52,5.26a5.52,5.52,0,0,1,2.8,3,4.89,4.89,0,0,1-.61,3.93,4.8,4.8,0,0,1-3,2.57,5.45,5.45,0,0,1-4-.76Zm11.3,2.5a2.2,2.2,0,0,0,1.61.36,1.9,1.9,0,0,0,1.21-2.18,2.26,2.26,0,0,0-1.17-1.17l-9.89-5.46a2.24,2.24,0,0,0-1.63-.38,1.61,1.61,0,0,0-1,.87,1.63,1.63,0,0,0-.19,1.31,2.23,2.23,0,0,0,1.18,1.19Z" transform="translate(0 118.26)" style="fill:#9f2c4e"/><path d="M265.31,134.38l1.82-3.29q2.46-4.5,7.17-1.89a10.57,10.57,0,0,1,1.63,1.11,7.29,7.29,0,0,1,1.29,1.45,10.68,10.68,0,0,1,1.09,2,28,28,0,0,1,1,2.74c.23.69.45,1.27.65,1.72a8,8,0,0,0,.6,1.15,4,4,0,0,0,.6.74,3.33,3.33,0,0,0,.68.48,2.07,2.07,0,0,0,.41.2l3-5.36,2.62,1.45-4.55,8.22-2.24-1.24a8.41,8.41,0,0,1-1.39-.93,6.25,6.25,0,0,1-1.13-1.21,8.83,8.83,0,0,1-1-1.64,21.22,21.22,0,0,1-.84-2.21,18.56,18.56,0,0,0-.83-2.22,10.71,10.71,0,0,0-.89-1.57,5.28,5.28,0,0,0-1-1.12,8.27,8.27,0,0,0-1.31-.87c-1.4-.77-2.46-.5-3.2.83l-1.59,2.9Z" transform="translate(0 118.26)" style="fill:#9f2c4e"/><path d="M286.37,132.71a6.13,6.13,0,0,0,.68-.73c.24-.28.46-.58.69-.89s.44-.62.64-1a9.89,9.89,0,0,0,.52-.94,1.86,1.86,0,0,0,.13-1.41,2.85,2.85,0,0,0-1.44-1.33l-1.32-.74a2.73,2.73,0,0,0-2.12-.41,2.55,2.55,0,0,0-1.39,1.28l-.59,1.07-2.62-1.45.68-1.22a2.53,2.53,0,0,0,.34-1.61,2.07,2.07,0,0,0-1.21-1.41l-1-.56a3.8,3.8,0,0,0-1.1-.43,1.83,1.83,0,0,0-.85,0,1.75,1.75,0,0,0-.65.37,2.57,2.57,0,0,0-.46.61,15.28,15.28,0,0,0-.83,1.62,12.07,12.07,0,0,0-.64,1.8l-2.74-.87a16.9,16.9,0,0,1,.71-2.11,19.13,19.13,0,0,1,1-2.14,5,5,0,0,1,3-2.74,5.61,5.61,0,0,1,3.92.83l.72.4a6,6,0,0,1,2.16,1.83,2.53,2.53,0,0,1,.34,2.19l.05,0a2.66,2.66,0,0,1,2.16-.88,6.24,6.24,0,0,1,2.67.85l1.6.88q4.57,2.53,2.09,7a15.37,15.37,0,0,1-2.94,4Z" transform="translate(0 118.26)" style="fill:#9f2c4e"/></svg>