<svg id="레이어_1" data-name="레이어 1" xmlns="http://www.w3.org/2000/svg" xmlns:xlink="http://www.w3.org/1999/xlink" viewBox="0 0 4644.48 2402.21"><defs><linearGradient id="무제_그라디언트_7" x1="227.76" y1="511.71" x2="1448.24" y2="511.71" gradientUnits="userSpaceOnUse"><stop offset="0" stop-color="#920783"/><stop offset="1" stop-color="#171c61"/></linearGradient><linearGradient id="무제_그라디언트_7-2" x1="658.69" y1="690.78" x2="1023.82" y2="690.78" xlink:href="#무제_그라디언트_7"/><linearGradient id="무제_그라디언트_7-3" x1="1802.74" y1="466.68" x2="1910.72" y2="466.68" xlink:href="#무제_그라디언트_7"/><linearGradient id="무제_그라디언트_7-4" x1="1833.81" y1="412.24" x2="1931.49" y2="412.24" xlink:href="#무제_그라디언트_7"/><linearGradient id="무제_그라디언트_7-5" x1="1856.54" y1="364.2" x2="1964.52" y2="364.2" xlink:href="#무제_그라디언트_7"/><linearGradient id="무제_그라디언트_7-6" x1="1883.44" y1="312.97" x2="1991.42" y2="312.97" xlink:href="#무제_그라디언트_7"/><linearGradient id="무제_그라디언트_7-7" x1="1670.1" y1="713.82" x2="1777.85" y2="713.82" xlink:href="#무제_그라디언트_7"/><linearGradient id="무제_그라디언트_7-8" x1="1702.35" y1="659.88" x2="1799.53" y2="659.88" xlink:href="#무제_그라디언트_7"/><linearGradient id="무제_그라디언트_7-9" x1="1726.07" y1="612.52" x2="1833.82" y2="612.52" xlink:href="#무제_그라디언트_7"/><linearGradient id="무제_그라디언트_7-10" x1="1753.6" y1="561.89" x2="1855.5" y2="561.89" xlink:href="#무제_그라디언트_7"/><clipPath id="clip-path" transform="translate(0 594.62)"><rect x="2567.36" y="-596.89" width="349.36" height="2386.67" transform="translate(632.35 -1253.89) rotate(28.98)" style="fill:none"/></clipPath><linearGradient id="무제_그라디언트_7-11" x1="1650.57" y1="1191.49" x2="3752.9" y2="1111.19" xlink:href="#무제_그라디언트_7"/><linearGradient id="무제_그라디언트_7-12" x1="1433.81" y1="554.75" x2="2967.98" y2="554.75" gradientTransform="translate(27.49 1198.34) rotate(-31.17)" xlink:href="#무제_그라디언트_7"/><linearGradient id="무제_그라디언트_7-13" x1="2473.43" y1="730.98" x2="4007.59" y2="730.98" gradientTransform="translate(92.32 1722.03) rotate(-31.17)" xlink:href="#무제_그라디언트_7"/><clipPath id="clip-path-2" transform="translate(0 594.62)"><rect x="3237.46" y="-593.29" width="349.36" height="2386.67" transform="translate(718 -1578.11) rotate(28.98)" style="fill:none"/></clipPath><linearGradient id="무제_그라디언트_7-14" x1="2320.67" y1="1195.09" x2="4423" y2="1114.79" xlink:href="#무제_그라디언트_7"/><linearGradient id="무제_그라디언트_7-15" x1="2103.28" y1="583.92" x2="3637.45" y2="583.92" gradientTransform="translate(109.66 1523.46) rotate(-31.17)" xlink:href="#무제_그라디언트_7"/><linearGradient id="무제_그라디언트_7-16" x1="3142.9" y1="760.15" x2="4677.06" y2="760.15" gradientTransform="translate(174.49 2047.15) rotate(-31.17)" xlink:href="#무제_그라디언트_7"/><clipPath id="clip-path-3" transform="translate(0 594.62)"><rect x="1895.79" y="-588.19" width="349.36" height="2386.67" transform="translate(552.47 -927.41) rotate(28.98)" style="fill:none"/></clipPath><linearGradient id="무제_그라디언트_7-17" x1="979" y1="1200.19" x2="3081.33" y2="1119.89" xlink:href="#무제_그라디언트_7"/><linearGradient id="무제_그라디언트_7-18" x1="762.4" y1="537.81" x2="2296.56" y2="537.81" gradientTransform="translate(-60.82 874.04) rotate(-31.17)" xlink:href="#무제_그라디언트_7"/><linearGradient id="무제_그라디언트_7-19" x1="1802.02" y1="714.04" x2="3336.18" y2="714.04" gradientTransform="translate(4.01 1397.73) rotate(-31.17)" xlink:href="#무제_그라디언트_7"/></defs><title>123</title><rect y="594.62" width="3952.22" height="1120.56" style="fill:#fff"/><path d="M316.56,615.45H278.81Q254,615.45,240.9,602t-13.14-40V456q0-26.89,13.14-40.18t37.91-13.29h35.63v32.93H281.22a15.7,15.7,0,0,0-12.53,5.43Q264,446.33,264,457.19V560.48c0,7.45,1.35,12.95,4.07,16.46s7.6,5.29,14.65,5.29h33.83ZM446.12,402.52V567.43q0,25.68-13.44,39.57t-37.9,13.89q-24.76,0-38.21-13.89t-13.44-39.57V402.52h35.64v167q0,10.58,4.53,15.1t12.38,4.53c5.24,0,9.26-1.51,12.09-4.53s4.23-8,4.23-15.1v-167ZM537.94,552q0-10.86-4.53-15.39t-13.59-4.54H509v83.36H472.7V402.52h49.53q25.08,0,39,13.45t13.89,39.11v24.46q0,27.49-16,41.08a24.64,24.64,0,0,1,11.63,12.08q3.46,7.86,3.47,21.44v61.31H537.94Zm-29-52.85h12.38a18.28,18.28,0,0,0,12.53-4.37q5-4.38,5-15V454.78q0-11.17-5-15.26a19.18,19.18,0,0,0-12.53-4.07H509ZM668.11,552q0-10.86-4.53-15.39T650,532.09H639.12v83.36H602.87V402.52h49.54q25.07,0,39,13.45t13.89,39.11v24.46q0,27.49-16,41.08a24.66,24.66,0,0,1,11.62,12.08q3.48,7.86,3.47,21.44v61.31H668.11Zm-29-52.85H651.5A18.32,18.32,0,0,0,664,494.8q5-4.38,5-15V454.78q0-11.17-5-15.26a19.22,19.22,0,0,0-12.54-4.07H639.12Zm97.26,116.28V402.52h36.24V615.45Zm154.32,0H853q-24.76,0-37.9-13.44t-13.14-40V456q0-26.89,13.14-40.18T853,402.52h35.64v32.93H855.37a15.72,15.72,0,0,0-12.54,5.43q-4.68,5.44-4.68,16.31V560.48c0,7.45,1.36,12.95,4.08,16.46s7.6,5.29,14.65,5.29H890.7Zm129.57-212.93V567.43q0,25.68-13.44,39.57t-37.9,13.89q-24.76,0-38.21-13.89t-13.44-39.57V402.52h35.64v167q0,10.58,4.53,15.1t12.38,4.53q7.86,0,12.08-4.53t4.23-15.1v-167Zm62.82,161q0,11.18,3.78,15.09t14.34,3.93h36v32.92h-44.1q-24.78,0-35.49-11.62t-10.72-39.42V402.52h36.24Zm177.89-161V567.43q0,25.68-13.44,39.57t-37.9,13.89q-24.77,0-38.21-13.89T1158,567.43V402.52h35.64v167q0,10.58,4.53,15.1t12.38,4.53c5.24,0,9.26-1.51,12.09-4.53s4.22-8,4.22-15.1v-167ZM1368.5,568.64l25.67-166.12h54.07V615.45H1415V442.39l-26.57,162.8q-1.82,10.26-11.48,10.26h-19a10.85,10.85,0,0,1-7.1-2.11q-2.57-2.12-4.07-8.15l-26.58-161V615.45H1287V402.52h54.36Z" transform="translate(0 594.62)" style="fill:url(#무제_그라디언트_7)"/><path d="M728.42,741.22V683.84H705a25.9,25.9,0,0,1-3.19,7.93,36.46,36.46,0,0,1-6.94,8,106.25,106.25,0,0,1-12,9.14q-7.38,5-18.62,11.24l-5.28-8.71q9.35-5.18,15.75-9.25a101.28,101.28,0,0,0,10.46-7.49,37.89,37.89,0,0,0,6.22-6.33,19.35,19.35,0,0,0,3-5.79l-35.35,1-.34-9.14,36.46-.66V658.07H660.79v-9.26H706v25.44h22.47V639.67h10.9V741.22Zm39.32-55.51V707.3h10.35q5.5,0,10-.11c3-.08,5.9-.2,8.65-.38s5.43-.41,8-.67,5.34-.6,8.21-1l1,9.15c-2.57.36-5.16.7-7.77,1s-5.43.55-8.48.77-6.39.39-10,.49-7.73.17-12.28.17H756.94V676.57h34.59v-19.5H756.61v-9.36h45.71v38Zm55,55.51V639.67h10.9V741.22Zm114.77-63v9H911.91v11.89H924v25.67H868.29V733H927v8.92H857.61V716.11h55.73v-8H857.06v-8.93h12.78V687.25H844.28v-9h67.3c.29-1.69.53-3.34.72-5s.34-3.23.49-4.84l-56.39,1.43-.22-9.15,57.05-.76v-8.38H857.39v-9.25h66.75v14.87q0,4-.39,9.64c-.26,3.78-.68,7.59-1.26,11.4Zm-56.73,20.92H901V687.25H880.74ZM945,694.41V664.78h32V653.55H945V644.3H987.8v29.52h-32v11.34h15.86c2.86,0,5.73,0,8.59-.16s5.82-.28,8.87-.5,6.25-.51,9.63-.88l1,9c-3.09.37-6,.66-8.87.88s-5.73.41-8.7.55-6.12.24-9.42.28-7,0-11,0Zm78.87,10.47v36.24H960.48V704.88Zm-52.54,27H1013V714.13H971.28ZM1013,699.92V672.27H995.07v-9.36H1013V639.67h10.8v60.25Z" transform="translate(0 594.62)" style="fill:url(#무제_그라디언트_7-2)"/><path d="M1802.74,457l8.35-15.92q11.28-21.76,34.07-9.8a46.86,46.86,0,0,1,7.9,5.16,35.7,35.7,0,0,1,6.35,6.79,54.55,54.55,0,0,1,5.42,9.46q2.52,5.46,5.16,13,1.74,4.91,3.25,8.16a39.36,39.36,0,0,0,3,5.42,18.75,18.75,0,0,0,3,3.47,15.72,15.72,0,0,0,3.27,2.26,12.9,12.9,0,0,0,2,.9l13.6-25.93,12.66,6.65-20.89,39.78L1879,500.67a44.51,44.51,0,0,1-6.74-4.31,30.65,30.65,0,0,1-5.55-5.69,44.45,44.45,0,0,1-4.69-7.76,97.11,97.11,0,0,1-4.21-10.44,97,97,0,0,0-4.24-10.53,49.2,49.2,0,0,0-4.39-7.45,26.2,26.2,0,0,0-5-5.25,42.87,42.87,0,0,0-6.35-4q-10.12-5.33-15.19,4.33l-7.34,14Z" transform="translate(0 594.62)" style="fill:url(#무제_그라디언트_7-3)"/><path d="M1848.52,421.31q-10.74-5.62-13.67-14.09t2.44-18.72q5.45-10.37,14.08-12.75t19.36,3.25l46.06,24.18q10.74,5.63,13.67,14.09T1928,436.1q-5.37,10.26-14,12.64t-19.37-3.25Zm54.29,10.82q4.71,2.47,7.74,1.53a9,9,0,0,0,5.54-10.55c-.65-2-2.55-3.8-5.68-5.45l-47.86-25.12c-3.21-1.69-5.83-2.24-7.82-1.65a9,9,0,0,0-5.54,10.55c.63,2,2.55,3.88,5.76,5.56Z" transform="translate(0 594.62)" style="fill:url(#무제_그라디언트_7-4)"/><path d="M1856.54,354.48l8.35-15.92q11.28-21.76,34.07-9.8a47.46,47.46,0,0,1,7.9,5.15,36.07,36.07,0,0,1,6.35,6.8,55.47,55.47,0,0,1,5.42,9.45q2.52,5.47,5.16,13c1.15,3.27,2.24,6,3.25,8.16a38.33,38.33,0,0,0,3,5.42,18.75,18.75,0,0,0,3,3.47,15.72,15.72,0,0,0,3.27,2.26,12.09,12.09,0,0,0,2,.89l13.61-25.92,12.66,6.65-20.89,39.78-10.84-5.69a44.51,44.51,0,0,1-6.74-4.31,31.59,31.59,0,0,1-5.56-5.68,44.91,44.91,0,0,1-4.68-7.77A97.11,97.11,0,0,1,1911.6,370a96.13,96.13,0,0,0-4.24-10.53A49.2,49.2,0,0,0,1903,352a26.48,26.48,0,0,0-5-5.25,41.78,41.78,0,0,0-6.35-4q-10.12-5.33-15.19,4.33l-7.34,14Z" transform="translate(0 594.62)" style="fill:url(#무제_그라디언트_7-5)"/><path d="M1883.44,303.24l8.35-15.91q11.28-21.76,34.07-9.8a46.84,46.84,0,0,1,7.9,5.15,36,36,0,0,1,6.35,6.79,55.2,55.2,0,0,1,5.42,9.46q2.52,5.47,5.16,13c1.15,3.27,2.24,6,3.25,8.17a38.9,38.9,0,0,0,3,5.42,19,19,0,0,0,3,3.46,15.72,15.72,0,0,0,3.27,2.26,12.35,12.35,0,0,0,2,.9l13.61-25.92,12.66,6.64-20.89,39.79-10.85-5.7a43.63,43.63,0,0,1-6.73-4.31,31.26,31.26,0,0,1-5.56-5.68,44.79,44.79,0,0,1-4.69-7.77,97.84,97.84,0,0,1-4.2-10.43,96.13,96.13,0,0,0-4.24-10.53,48,48,0,0,0-4.39-7.46,26.2,26.2,0,0,0-5-5.25,43.4,43.4,0,0,0-6.35-4q-10.12-5.31-15.19,4.33l-7.34,14Z" transform="translate(0 594.62)" style="fill:url(#무제_그라디언트_7-6)"/><path d="M1670.1,702.87l8.69-15.73q11.74-21.51,34.26-9.08a47.78,47.78,0,0,1,7.8,5.32,36.61,36.61,0,0,1,6.2,6.93,54.72,54.72,0,0,1,5.21,9.57q2.41,5.54,4.89,13.13,1.62,4.93,3.08,8.22a37.1,37.1,0,0,0,2.88,5.49,18.75,18.75,0,0,0,2.87,3.53,16.53,16.53,0,0,0,3.23,2.33,12.36,12.36,0,0,0,2,.93l14.16-25.62,12.51,6.91-21.73,39.33-10.72-5.92a44.79,44.79,0,0,1-6.65-4.46,30.86,30.86,0,0,1-5.43-5.8,44.22,44.22,0,0,1-4.52-7.86,98.16,98.16,0,0,1-4-10.52,95.54,95.54,0,0,0-4-10.62,48.6,48.6,0,0,0-4.23-7.55,26.38,26.38,0,0,0-4.9-5.35,42.77,42.77,0,0,0-6.26-4.16q-10-5.52-15.27,4l-7.64,13.83Z" transform="translate(0 594.62)" style="fill:url(#무제_그라디언트_7-7)"/><path d="M1716.63,668.22q-10.61-5.85-13.37-14.38t2.84-18.66q5.67-10.24,14.35-12.45t19.29,3.66l45.52,25.15q10.62,5.87,13.37,14.38t-2.9,18.78q-5.61,10.13-14.29,12.33t-19.29-3.66Zm54,12c3.1,1.71,5.66,2.28,7.7,1.69a9,9,0,0,0,5.76-10.43c-.61-2-2.46-3.85-5.56-5.56l-47.32-26.14c-3.17-1.75-5.77-2.36-7.78-1.81a9,9,0,0,0-5.76,10.43c.58,2,2.47,3.93,5.64,5.68Z" transform="translate(0 594.62)" style="fill:url(#무제_그라디언트_7-8)"/><path d="M1726.07,601.57l8.69-15.73q11.73-21.52,34.26-9.08a47.78,47.78,0,0,1,7.8,5.32A36.61,36.61,0,0,1,1783,589a54.72,54.72,0,0,1,5.21,9.57q2.41,5.53,4.89,13.12c1.08,3.3,2.11,6,3.08,8.23a37.43,37.43,0,0,0,2.87,5.48A19.34,19.34,0,0,0,1802,629a16.45,16.45,0,0,0,3.22,2.33,12.36,12.36,0,0,0,2,.93l14.15-25.62,12.52,6.91-21.73,39.33-10.73-5.92a45.2,45.2,0,0,1-6.64-4.46,30.86,30.86,0,0,1-5.43-5.8,44.22,44.22,0,0,1-4.52-7.86,97.58,97.58,0,0,1-4-10.53,94.55,94.55,0,0,0-4-10.61,49,49,0,0,0-4.23-7.55,26.12,26.12,0,0,0-4.9-5.35,42,42,0,0,0-6.26-4.16q-10-5.52-15.27,4l-7.64,13.83Z" transform="translate(0 594.62)" style="fill:url(#무제_그라디언트_7-9)"/><path d="M1826.78,593.58a35.28,35.28,0,0,0,3.25-3.49q1.67-2,3.28-4.25c1.08-1.47,2.1-3,3-4.54a47,47,0,0,0,2.5-4.53,8.79,8.79,0,0,0,.61-6.73q-1-3.16-6.89-6.38l-6.32-3.5q-6.08-3.35-10.09-2t-6.65,6.12l-2.84,5.13-12.51-6.92,3.23-5.84a12.17,12.17,0,0,0,1.62-7.73q-.54-3.81-5.78-6.7l-4.89-2.7a17.3,17.3,0,0,0-5.25-2,8.4,8.4,0,0,0-4.06.17,7.76,7.76,0,0,0-3.09,1.79,11.63,11.63,0,0,0-2.22,2.89,72.8,72.8,0,0,0-4,7.76,59.07,59.07,0,0,0-3,8.59l-13.11-4.13a81.25,81.25,0,0,1,3.4-10.11,96.85,96.85,0,0,1,4.87-10.21q6.2-11.21,14.32-13.1t18.73,4l3.45,1.91q7.16,4,10.34,8.75a12.17,12.17,0,0,1,1.61,10.45l.24.14a12.48,12.48,0,0,1,10.31-4.18,30,30,0,0,1,12.79,4l7.63,4.21q21.93,12.12,10,33.69-6.78,12.27-14.07,19Z" transform="translate(0 594.62)" style="fill:url(#무제_그라디언트_7-10)"/><g style="clip-path:url(#clip-path)"><rect x="1670.44" y="591.06" width="2062.59" height="1120.56" style="fill:url(#무제_그라디언트_7-11)"/><rect x="2023.12" y="-659.41" width="349.36" height="2386.67" transform="translate(533.9 -403.4) rotate(28.98)" style="fill:url(#무제_그라디언트_7-12)"/><rect x="3068.71" y="-522.99" width="349.36" height="2386.67" transform="translate(730.93 -892.92) rotate(28.98)" style="fill:url(#무제_그라디언트_7-13)"/></g><g style="clip-path:url(#clip-path-2)"><rect x="2340.54" y="594.65" width="2062.59" height="1120.56" style="fill:url(#무제_그라디언트_7-14)"/><rect x="2693.21" y="-655.82" width="349.36" height="2386.67" transform="translate(619.56 -727.62) rotate(28.98)" style="fill:url(#무제_그라디언트_7-15)"/><rect x="3738.8" y="-519.4" width="349.36" height="2386.67" transform="translate(816.58 -1217.15) rotate(28.98)" style="fill:url(#무제_그라디언트_7-16)"/></g><g style="clip-path:url(#clip-path-3)"><rect x="998.87" y="599.76" width="2062.59" height="1120.56" style="fill:url(#무제_그라디언트_7-17)"/><rect x="1351.55" y="-650.72" width="349.36" height="2386.67" transform="translate(454.03 -76.92) rotate(28.98)" style="fill:url(#무제_그라디언트_7-18)"/><rect x="2397.14" y="-514.29" width="349.36" height="2386.67" transform="translate(651.05 -566.45) rotate(28.98)" style="fill:url(#무제_그라디언트_7-19)"/></g><path d="M2742.83,361.32h14.73a20.73,20.73,0,0,0,4-.39,9.22,9.22,0,0,0,3.62-1.55,8.19,8.19,0,0,0,2.58-3.3,13.27,13.27,0,0,0,1-5.49V339h-.26a13.12,13.12,0,0,1-4.91,3.17,20.06,20.06,0,0,1-6.72,1q-9.32,0-14.16-5.56t-4.84-16.16V302.24q0-11.37,6-17.45t17-6.07q11.1,0,16.93,6.07t5.81,17.45v48.87q0,12.15-6.2,17.9t-18,5.75h-16.54Zm17.58-31.8a8.4,8.4,0,0,0,5.81-2.2c1.64-1.46,2.46-3.88,2.46-7.24V301.34q0-5.18-2.14-7a8.4,8.4,0,0,0-5.74-1.87,9,9,0,0,0-5.82,1.87q-2.33,1.88-2.33,7v18.87q0,5,2.39,7.17A7.82,7.82,0,0,0,2760.41,329.52Z" transform="translate(0 594.62)" style="fill:#fff"/><path d="M2789.88,331.72q4.51-6.6,8.59-9.51a14.28,14.28,0,0,1,8.34-2.9,15.79,15.79,0,0,1,4.91.9,27.49,27.49,0,0,1,6.47,3.49,53,53,0,0,0,5,3,7,7,0,0,0,3.1.84,6.44,6.44,0,0,0,2-.32,6.61,6.61,0,0,0,2-1.17,17.86,17.86,0,0,0,2.32-2.39c.86-1,1.89-2.33,3.1-3.88l8.15,7.11a40.3,40.3,0,0,1-8,9.25,13.22,13.22,0,0,1-8.27,2.9,16.25,16.25,0,0,1-5.1-1,27,27,0,0,1-6.66-3.55,46,46,0,0,0-5-3,7.45,7.45,0,0,0-3.1-.78,6.81,6.81,0,0,0-4.21,1.55,30.07,30.07,0,0,0-5.23,6.21Z" transform="translate(0 594.62)" style="fill:#fff"/><path d="M2853.35,298.5l22-18.75h12.15v95h-15V299.4l-11.12,8.66Z" transform="translate(0 594.62)" style="fill:#fff"/><path d="M2905.56,302.5q0-11.5,5.82-17.71t16.8-6.2q11.13,0,16.94,6.2t5.82,17.71v49.38q0,11.5-5.82,17.71t-16.94,6.2q-11,0-16.8-6.2t-5.82-17.71Zm14.87,50.42q0,5,2.13,7.17a8.57,8.57,0,0,0,11.31,0q2.07-2.13,2.07-7.17V301.6c0-3.45-.69-5.88-2.07-7.31a8.57,8.57,0,0,0-11.31,0c-1.42,1.43-2.13,3.86-2.13,7.31Z" transform="translate(0 594.62)" style="fill:#fff"/><path d="M2975.88,341.15V329.52h-16.16v-12.8h50.8v12.8H2990.1v11.63Zm8.53-26.37a39.79,39.79,0,0,1-8.6-.9,22.45,22.45,0,0,1-7.3-3,14.93,14.93,0,0,1-5.1-5.43,16.44,16.44,0,0,1-1.88-8.14v-.77a16.43,16.43,0,0,1,1.94-8.21,16.16,16.16,0,0,1,5.11-5.56,21.74,21.74,0,0,1,7.3-3.1,37.06,37.06,0,0,1,8.53-1,37.92,37.92,0,0,1,8.6,1,21.71,21.71,0,0,1,7.36,3.1,16.25,16.25,0,0,1,5.11,5.56,16.43,16.43,0,0,1,1.94,8.21v.77a16,16,0,0,1-1.94,8.14,15.38,15.38,0,0,1-5.17,5.43,22.3,22.3,0,0,1-7.37,3A40,40,0,0,1,2984.41,314.78Zm-19.9,42h48.34v-2.32h-48.34V342.7h63.08v24.95h-48.35v.52c0,.86.19,1.4.58,1.61a3.64,3.64,0,0,0,1.75.33h47.31V382H2976.4q-5.82,0-8.86-3t-3-8.92Zm28.82-59.72q0-3.36-2.59-4.59a17,17,0,0,0-12.66,0q-2.6,1.23-2.59,4.59t2.59,4.27a20,20,0,0,0,12.66,0Q2993.34,300.3,2993.33,297.07Zm34.26-17.71v61.79h-14.74v-1.42H2996.3v-8.92h16.55V279.36Z" transform="translate(0 594.62)" style="fill:#fff"/><path d="M3384.11,304.33l22-18.74h12.15v95h-15V305.24l-11.12,8.66Z" transform="translate(0 594.62)" style="fill:#fff"/><path d="M3439,304.33l22-18.74h12.15v95h-15V305.24l-11.11,8.66Z" transform="translate(0 594.62)" style="fill:#fff"/><path d="M3487.77,337.55q4.53-6.58,8.6-9.5a14.17,14.17,0,0,1,8.33-2.91,15.83,15.83,0,0,1,4.92.91,27.28,27.28,0,0,1,6.46,3.49,55.66,55.66,0,0,0,5,3,7,7,0,0,0,3.11.84,6.21,6.21,0,0,0,2-.33,6.44,6.44,0,0,0,2-1.16,18.48,18.48,0,0,0,2.33-2.39q1.29-1.56,3.1-3.88l8.14,7.11a40,40,0,0,1-8,9.24,13.19,13.19,0,0,1-8.28,2.91,16.35,16.35,0,0,1-5.1-1,27.52,27.52,0,0,1-6.65-3.55,45.41,45.41,0,0,0-5.05-3,7.54,7.54,0,0,0-3.1-.77,6.71,6.71,0,0,0-4.2,1.55,29.91,29.91,0,0,0-5.24,6.2Z" transform="translate(0 594.62)" style="fill:#fff"/><path d="M3551.24,304.33l22-18.74h12.16v95h-15V305.24l-11.11,8.66Z" transform="translate(0 594.62)" style="fill:#fff"/><path d="M3608.24,285.59h17.06q23.28-.12,23.27,24.3a44.82,44.82,0,0,1-.84,8.92,34.29,34.29,0,0,1-2.91,8.34,51.81,51.81,0,0,1-5.56,8.72q-3.48,4.53-8.66,10.08-3.36,3.63-5.43,6.34a36.92,36.92,0,0,0-3.22,4.91,17.9,17.9,0,0,0-1.62,4,15.47,15.47,0,0,0-.45,3.75A12.55,12.55,0,0,0,3620,367h27.79V380.6h-42.65V369a41.41,41.41,0,0,1,.65-7.56,29.49,29.49,0,0,1,2.32-7.17,42.47,42.47,0,0,1,4.46-7.37,91.42,91.42,0,0,1,6.92-8.14,92.69,92.69,0,0,0,7-8.21,46.49,46.49,0,0,0,4.33-7A25.28,25.28,0,0,0,3633,317a40.92,40.92,0,0,0,.58-7.11q0-10.86-10.35-10.86h-15Z" transform="translate(0 594.62)" style="fill:#fff"/><path d="M3673.77,347V335.36h-16.15v-12.8h50.8v12.8H3688V347Zm8.54-26.37a39.79,39.79,0,0,1-8.6-.9,22.58,22.58,0,0,1-7.3-3,14.88,14.88,0,0,1-5.11-5.43,16.46,16.46,0,0,1-1.87-8.14v-.78a16.31,16.31,0,0,1,1.94-8.2,16.14,16.14,0,0,1,5.1-5.56,21.54,21.54,0,0,1,7.3-3.1,37.09,37.09,0,0,1,8.54-1,37.91,37.91,0,0,1,8.59,1,21.57,21.57,0,0,1,7.37,3.1,15.81,15.81,0,0,1,7.05,13.76v.78a16.05,16.05,0,0,1-1.94,8.14,15.56,15.56,0,0,1-5.17,5.43,22.69,22.69,0,0,1-7.37,3A40.09,40.09,0,0,1,3682.31,320.62Zm-19.91,42h48.34V360.3H3662.4V348.54h63.08v24.95h-48.34V374c0,.87.19,1.41.58,1.62a3.62,3.62,0,0,0,1.74.32h47.31v11.89h-52.48c-3.87,0-6.83-1-8.85-3s-3-4.95-3-8.92Zm28.83-59.72a4.62,4.62,0,0,0-2.59-4.59,16.93,16.93,0,0,0-12.67,0q-2.58,1.23-2.58,4.59t2.58,4.27a20,20,0,0,0,12.67,0C3690.36,306.49,3691.23,305.07,3691.23,302.91Zm34.25-17.71V347h-14.74v-1.42H3694.2v-8.92h16.54V285.2Z" transform="translate(0 594.62)" style="fill:#fff"/><path d="M2669.81,566.32h-15.52l7.89-44.8q1-5.71,4.9-8.51a16.37,16.37,0,0,1,9.68-2.79h3.94a15.51,15.51,0,0,1,9.74,3,12.93,12.93,0,0,1,4.83,8.31l7.76,44.8h-15.52l-6.4-38.4a8.83,8.83,0,0,0-.68-2,1.31,1.31,0,0,0-1.23-.82h-.95c-1,0-1.63,1-1.91,2.86Zm-7.49,22.46h48.48v-4.63h-48.48V571h64v29.81h-48.48v1.91c0,1.55.82,2.32,2.46,2.32h47.51v13.34h-53q-6.13,0-9.33-3.13t-3.2-9.4Zm64-78.56v56.1H2710.8v-56.1Z" transform="translate(0 594.62)" style="fill:#fff"/><path d="M2751.91,574.76h-15.52l8.58-30.5q2-7.75,9.12-10.21V525.2h-14.84V511H2785V525.2h-15.25v8.85a14.4,14.4,0,0,1,9.26,10.21l8.31,30.5h-15.66l-6.54-24a4.78,4.78,0,0,0-.88-2.12,2.44,2.44,0,0,0-2-.74h-.68a2.29,2.29,0,0,0-1.9.68,6,6,0,0,0-1,2.18Zm9.27,43q-16.89,0-16.89-16.07V582.38h15.52v15.93c0,2.1.41,3.5,1.23,4.22s2.22,1.1,4.22,1.1H2794V552H2783.5V537.18H2794v-27h15.66V617.79Z" transform="translate(0 594.62)" style="fill:#fff"/><path d="M3246.33,874.32V859.48h12.25V814h15.66v45.48h26.42v14.84ZM3283,767.57q15.8,0,15.8,16.07v65h-15.52V789.77c0-2.73-.64-4.63-1.91-5.72s-3.22-1.63-5.85-1.63h-27.78V767.57Z" transform="translate(0 594.62)" style="fill:#fff"/><path d="M3360.84,767.57q15.79,0,15.79,16.07v29h6.27v15h-73.26v-15h51.47V789.77c0-2.73-.63-4.63-1.9-5.72s-3.23-1.63-5.86-1.63H3315.9V767.57Zm-31.18,72.31h33.08v-7H3378v26.14a19.85,19.85,0,0,1-1.3,7.77,10.64,10.64,0,0,1-3.61,4.62,13.92,13.92,0,0,1-5.37,2.25,34.38,34.38,0,0,1-6.74.61h-28.46a40.12,40.12,0,0,1-7.28-.61,14.18,14.18,0,0,1-5.73-2.31,11.06,11.06,0,0,1-3.67-4.7,19.84,19.84,0,0,1-1.29-7.76v-26h15.11Zm33.08,12.39h-33.08v3.53a6.73,6.73,0,0,0,.47,2.86,2.61,2.61,0,0,0,1.3,1.3,5,5,0,0,0,2,.34h25.53A5.33,5.33,0,0,0,3361,860a2.59,2.59,0,0,0,1.29-1.3,6.58,6.58,0,0,0,.47-2.86Z" transform="translate(0 594.62)" style="fill:#fff"/><path d="M2561.38,875.27q-8.58,0-14.29-4.57t-5.72-13v-1.23q0-8.43,5.72-12.86t14.29-4.43h4.09V835h-27.91V820.12h73.25V835H2581v4.22h5.58a24.64,24.64,0,0,1,7.56,1.16,20.53,20.53,0,0,1,6.4,3.34,15.78,15.78,0,0,1,4.42,5.37,16,16,0,0,1,1.64,7.42v1.23a16.14,16.14,0,0,1-6.06,13,19.68,19.68,0,0,1-6.4,3.41,24.64,24.64,0,0,1-7.56,1.16Zm31.87-92.6a18.37,18.37,0,0,1,1.15,2.18l1,2.32L2607.54,816h-17.43L2579,787.17a6.07,6.07,0,0,0-1.5-2.45,3.53,3.53,0,0,0-2.31-.68h-1.91q-2.45,0-3.68,3.13L2557.16,816h-16.34l12.53-28.87,1-2.32a17.11,17.11,0,0,1,1.16-2.18h-12.26V768.51h62.09v14.16Zm-36.36,74.9q0,3.4,5.86,3.4h22.6q5.85,0,5.85-3.4v-.82q0-3.27-5.85-3.27h-22.6q-5.86,0-5.86,3.27Z" transform="translate(0 594.62)" style="fill:#fff"/><path d="M2670.45,768.51q15.8,0,15.79,16.07v29h6.27v15h-73.26v-15h51.47V790.71c0-2.73-.63-4.63-1.9-5.72s-3.23-1.63-5.86-1.63h-37.44V768.51Zm-31.18,72.31h33.09v-7h15.24V860a19.86,19.86,0,0,1-1.29,7.77,10.66,10.66,0,0,1-3.61,4.63,13.89,13.89,0,0,1-5.38,2.24,34.17,34.17,0,0,1-6.73.62h-28.46a40.2,40.2,0,0,1-7.29-.62,14.19,14.19,0,0,1-5.72-2.31,11,11,0,0,1-3.67-4.7,19.58,19.58,0,0,1-1.3-7.76v-26h15.12Zm33.09,12.39h-33.09v3.54a6.47,6.47,0,0,0,.48,2.86,2.49,2.49,0,0,0,1.29,1.29,5,5,0,0,0,2,.34h25.53a5.33,5.33,0,0,0,2.05-.34,2.57,2.57,0,0,0,1.29-1.29,6.61,6.61,0,0,0,.48-2.86Z" transform="translate(0 594.62)" style="fill:#fff"/><path d="M3363.2,619.84h-49.29V605h5.44V527.93h-5.72V513.09h49.43v14.84h-6V605h6.13Zm-21.38-91.91h-7.22V605h7.22Zm42.08-15.66v44.8h7.89v14.84h-7.89v47.93h-15.66V512.27Z" transform="translate(0 594.62)" style="fill:#fff"/><path d="M3399,535.69q0-11.16,6.26-17.43t16.48-6.26q10.22,0,16.47,6.26t6.27,17.43v59.37q0,11.18-6.27,17.5t-16.47,6.33q-10.22,0-16.48-6.33t-6.26-17.5Zm15.66,59.37c0,3.45.72,5.88,2.18,7.29a6.89,6.89,0,0,0,4.9,2.11,6.68,6.68,0,0,0,4.83-2.11q2.11-2.11,2.11-7.29V535.69q0-5.18-2.11-7.21a6.78,6.78,0,0,0-4.83-2.05,7,7,0,0,0-4.9,2.05c-1.46,1.36-2.18,3.76-2.18,7.21Zm55.14-82.79V619.84h-15.65V512.27Z" transform="translate(0 594.62)" style="fill:#fff"/><path d="M3502.08,569.33q-10.22,0-14.5-4.57T3483.29,549V512.27h15.53v35.54c0,2.64.51,4.41,1.56,5.31a7,7,0,0,0,4.7,1.36H3528v14.85Zm-10.48,21.51h45.48v-4.63H3491.6V573h61v29.82h-45.48v1.91c0,1.55.82,2.32,2.45,2.32h44.52v13.34h-50q-6.14,0-9.34-3.14t-3.19-9.39Zm61-78.57v57.06h-15.52V541.82h-18.39v-15h18.39V512.27Z" transform="translate(0 594.62)" style="fill:#fff"/><path d="M1912.66,736.54q15.79,0,15.8,16.07V843.3h-15.52V758.74q0-4.08-1.91-5.72t-5.85-1.63h-12.39V736.54Zm43-.81V843.3h-15.52V735.73Z" transform="translate(0 594.62)" style="fill:#fff"/><path d="M2005.8,769v2.32a13.9,13.9,0,0,1,6.94,3.68,17.72,17.72,0,0,1,4.5,7.21L2027.59,812h-15.53l-9-25.19q-1.36-3.67-4.5-3.68h-1.09c-2.09,0-3.58,1.23-4.49,3.68L1983.74,812h-15.25l10.76-29.82a16.57,16.57,0,0,1,4.42-6.87,16.94,16.94,0,0,1,6.61-3.75V769H1970V754.52h56.1V769Zm-37.17,74.35V828.45h21.65V804h15.52v24.5h21.51V843.3Zm47.65-110.57v14.84h-35.81V732.73Z" transform="translate(0 594.62)" style="fill:#fff"/><path d="M2163,372.43q0,12.12-6.26,18.65t-18.24,6.54q-12,0-18.32-6.54t-6.33-18.65v-7.9a31.48,31.48,0,0,1,2.25-12.46,17.16,17.16,0,0,1,7.42-8.24v-.27a16.34,16.34,0,0,1-7.15-7.63,29.86,29.86,0,0,1-2.25-12.39v-3.13q0-12.12,6.2-18.65t18.18-6.54q12,0,18.11,6.54t6.12,18.65v3.13q0,14.85-9.39,20v.27a17.21,17.21,0,0,1,7.42,8.24,31.48,31.48,0,0,1,2.24,12.46Zm-33.49-.41q0,6.68,2.59,9a9.21,9.21,0,0,0,6.4,2.32,9,9,0,0,0,6.26-2.32c1.72-1.54,2.59-4.53,2.59-9v-9.26c0-4-.77-6.88-2.32-8.65a8.19,8.19,0,0,0-6.53-2.65,8.42,8.42,0,0,0-6.61,2.65c-1.59,1.77-2.38,4.66-2.38,8.65Zm.41-45.48c0,4.08.77,6.88,2.31,8.37a9.65,9.65,0,0,0,12.39,0c1.64-1.49,2.46-4.29,2.46-8.37V321q0-6.68-2.46-9.06a9.16,9.16,0,0,0-12.32,0c-1.58,1.59-2.38,4.61-2.38,9.06Z" transform="translate(0 594.62)" style="fill:#fff"/><path d="M2188.64,361.12V348.87h-17V335.39h53.52v13.48h-21.52v12.25Zm9-27.77a41.37,41.37,0,0,1-9-1,23.41,23.41,0,0,1-7.7-3.13,15.79,15.79,0,0,1-5.38-5.72,17.4,17.4,0,0,1-2-8.57v-.82a16.62,16.62,0,0,1,7.42-14.5,22.94,22.94,0,0,1,7.7-3.27,39.18,39.18,0,0,1,9-1,40.33,40.33,0,0,1,9.06,1,23.09,23.09,0,0,1,7.76,3.27,16.68,16.68,0,0,1,7.42,14.5V315a16.78,16.78,0,0,1-2.05,8.57,16.3,16.3,0,0,1-5.44,5.72,23.39,23.39,0,0,1-7.76,3.13A41.75,41.75,0,0,1,2197.62,333.35Zm-21,44.25h50.92v-2.45h-50.92V362.76h66.45V389h-50.92v.54c0,.91.2,1.48.61,1.71a3.94,3.94,0,0,0,1.83.34h49.84v12.52h-55.28q-6.12,0-9.33-3.13t-3.2-9.39ZM2207,314.69q0-3.54-2.73-4.83a17.89,17.89,0,0,0-13.34,0q-2.73,1.29-2.73,4.83t2.73,4.5a21,21,0,0,0,13.34,0Q2207,318.09,2207,314.69ZM2243.1,296v65.08h-15.53v-1.49h-17.42v-9.4h17.42V296Z" transform="translate(0 594.62)" style="fill:#fff"/><path d="M2013,517.58q15.79,0,15.8,16.07v90.69h-15.52V539.78q0-4.08-1.91-5.72t-5.85-1.63H1993.1V517.58Zm43-.81V624.34h-15.52V516.77Z" transform="translate(0 594.62)" style="fill:#fff"/><path d="M2106.11,550v2.32a14,14,0,0,1,6.94,3.67,17.83,17.83,0,0,1,4.5,7.22L2127.9,593h-15.53l-9-25.19q-1.36-3.68-4.49-3.68h-1.09c-2.1,0-3.59,1.23-4.5,3.68L2084.05,593H2068.8l10.76-29.82a16.57,16.57,0,0,1,4.42-6.87,17,17,0,0,1,6.61-3.75V550H2070.3V535.56h56.1V550Zm-37.17,74.35V609.5h21.65V585h15.52V609.5h21.52v14.84Zm47.65-110.57v14.85h-35.81V513.77Z" transform="translate(0 594.62)" style="fill:#fff"/></svg>