<svg id="레이어_1" data-name="레이어 1" xmlns="http://www.w3.org/2000/svg" xmlns:xlink="http://www.w3.org/1999/xlink" viewBox="0 0 610.98 186.25"><defs><linearGradient id="무제_그라디언트" x1="97.41" y1="68.59" x2="630.47" y2="68.59" gradientUnits="userSpaceOnUse"><stop offset="0" stop-color="#fff"/><stop offset="1"/></linearGradient><linearGradient id="무제_그라디언트_29" x1="169.44" y1="108.52" x2="575.81" y2="115.62" gradientUnits="userSpaceOnUse"><stop offset="0" stop-color="#d70051"/><stop offset="1" stop-color="#920783"/></linearGradient></defs><title>midle</title><rect width="610.98" height="186.25" style="fill:#fff"/><path d="M123.09,67.75v2.47H97.62V67.75Zm-22.18,4.69h18.63v8.94h-3V75H100.91Zm18.42-9.3v2.53h-18V54.17h17.81V56.7H104.28v2H119v2.44H104.28v2Z" transform="translate(-55.57 -12.8)" style="fill:url(#무제_그라디언트)"/><path d="M125.16,66.4V54.15h2.92v4h7.14v-4h2.92V66.4Zm2.92-2.47h7.14V60.59h-7.14Zm1.42,17.3V73.8h14.26V71.27H129.35V68.8h17.33v7.41H132.42v2.56h15.05v2.46Zm14.26-13.87V64.5h-4.33V61.94h4.33V59.32h-4.33V56.76h4.33V53.3h2.92V67.36Z" transform="translate(-55.57 -12.8)" style="fill:url(#무제_그라디언트)"/><path d="M150.75,68.68v-14h2.92V59.5h7.13V54.72h2.92v14Zm2.92-2.53h7.13V62h-7.13Zm3.67,12h14.72v2.59h-17.7v-9h3Zm17.91-14.5H171.3v9.45h-3V53.3h3v7.77h3.95Z" transform="translate(-55.57 -12.8)" style="fill:url(#무제_그라디언트)"/><path d="M192.4,77.62V59.41l-5.08,3L185.9,60l7-4.09h2.5v21.7Z" transform="translate(-55.57 -12.8)" style="fill:url(#무제_그라디언트)"/><path d="M217.8,68.44c0,3.07-.62,5.42-1.88,7.06S212.74,78,210.13,78a6.81,6.81,0,0,1-5.78-2.47c-1.26-1.64-1.9-4-1.9-7V65.07c0-3,.65-5.39,1.93-7a8,8,0,0,1,11.51,0c1.28,1.64,1.91,4,1.91,7Zm-3-3.4a13,13,0,0,0-.34-3.28,5.3,5.3,0,0,0-1-2A3.4,3.4,0,0,0,212,58.66a5.5,5.5,0,0,0-1.84-.3,5.41,5.41,0,0,0-1.81.3,3.37,3.37,0,0,0-1.47,1.07,5.55,5.55,0,0,0-1,2,12,12,0,0,0-.37,3.27v3.43a12.26,12.26,0,0,0,.37,3.3,5.42,5.42,0,0,0,1,2.06,3.4,3.4,0,0,0,1.47,1,5.41,5.41,0,0,0,1.81.3,5.5,5.5,0,0,0,1.84-.3,3.4,3.4,0,0,0,1.47-1,5.23,5.23,0,0,0,1-2,13.14,13.14,0,0,0,.34-3.31Z" transform="translate(-55.57 -12.8)" style="fill:url(#무제_그라디언트)"/><path d="M236.16,68.44c0,3.07-.62,5.42-1.88,7.06S231.1,78,228.49,78a6.81,6.81,0,0,1-5.78-2.47c-1.26-1.64-1.9-4-1.9-7V65.07c0-3,.65-5.39,1.93-7a8,8,0,0,1,11.51,0c1.28,1.64,1.91,4,1.91,7Zm-3-3.4a13,13,0,0,0-.34-3.28,5.3,5.3,0,0,0-1-2,3.4,3.4,0,0,0-1.47-1.05,5.5,5.5,0,0,0-1.84-.3,5.37,5.37,0,0,0-1.81.3,3.37,3.37,0,0,0-1.47,1.07,5.72,5.72,0,0,0-1,2,12.42,12.42,0,0,0-.36,3.27v3.43a12.72,12.72,0,0,0,.36,3.3,5.58,5.58,0,0,0,1,2.06,3.4,3.4,0,0,0,1.47,1,5.37,5.37,0,0,0,1.81.3,5.5,5.5,0,0,0,1.84-.3,3.4,3.4,0,0,0,1.47-1,5.23,5.23,0,0,0,1-2,13.14,13.14,0,0,0,.34-3.31Z" transform="translate(-55.57 -12.8)" style="fill:url(#무제_그라디언트)"/><path d="M252.12,67.45H239.59V54.93h12.53Zm-9.61-2.53h6.69V57.46h-6.69Zm1.63,10.41a3.77,3.77,0,0,1,.59-2,5.41,5.41,0,0,1,1.68-1.69,9.17,9.17,0,0,1,2.68-1.14,15.34,15.34,0,0,1,7.13,0,9.06,9.06,0,0,1,2.68,1.14,5.44,5.44,0,0,1,1.69,1.69,3.86,3.86,0,0,1,.59,2v1.21a3.86,3.86,0,0,1-.59,2,5.34,5.34,0,0,1-1.69,1.69,9.06,9.06,0,0,1-2.68,1.14,15.34,15.34,0,0,1-7.13,0,9.17,9.17,0,0,1-2.68-1.14,5.3,5.3,0,0,1-1.68-1.69,3.77,3.77,0,0,1-.59-2Zm14.12.18a1.91,1.91,0,0,0-.4-1.09,3.35,3.35,0,0,0-1.11-1,7,7,0,0,0-1.76-.69,9.88,9.88,0,0,0-4.67,0,7.18,7.18,0,0,0-1.76.69,3.35,3.35,0,0,0-1.11,1,1.89,1.89,0,0,0-.39,1.09v.85a1.94,1.94,0,0,0,.39,1.1,3.44,3.44,0,0,0,1.11,1,7.17,7.17,0,0,0,1.76.7,10.23,10.23,0,0,0,4.67,0,7,7,0,0,0,1.76-.7,3.44,3.44,0,0,0,1.11-1,2,2,0,0,0,.4-1.1Zm-.12-5.83V65.25h-4.4V62.69h4.4V59.86h-4.4V57.31h4.4v-4h2.91V69.68Z" transform="translate(-55.57 -12.8)" style="fill:url(#무제_그라디언트)"/><path d="M263.76,68.56V66h25.47v2.53H278V71a14.76,14.76,0,0,1,3,.56,8.29,8.29,0,0,1,2.26,1,5,5,0,0,1,1.43,1.47,3.46,3.46,0,0,1,.49,1.8v1a3.5,3.5,0,0,1-.6,2,5.18,5.18,0,0,1-1.73,1.56,9.85,9.85,0,0,1-2.74,1,17.65,17.65,0,0,1-7.19,0,9.73,9.73,0,0,1-2.74-1,5.18,5.18,0,0,1-1.73-1.56,3.5,3.5,0,0,1-.6-2v-1a3.87,3.87,0,0,1,1.91-3.28A10.55,10.55,0,0,1,275,71V68.56Zm12.7-8a1.63,1.63,0,0,1-.51.52,8.94,8.94,0,0,1-.93.59q-.54.3-1.11.57l-1.06.48c-1,.4-2,.78-3,1.13s-1.91.7-2.88,1l-1.11-2.41c1.2-.38,2.26-.74,3.16-1.07s1.77-.66,2.59-1A9.34,9.34,0,0,0,274.09,59a2.28,2.28,0,0,0,.9-1.75v-.42h-7.92V54.33h18.85v2.46H278v.42a2.2,2.2,0,0,0,.89,1.71,10.93,10.93,0,0,0,2.45,1.43c.8.34,1.67.68,2.59,1s2,.7,3.16,1.08L286,64.86c-1-.34-2-.69-2.92-1s-1.9-.73-2.86-1.13l-1.09-.48q-.6-.27-1.14-.57a10.67,10.67,0,0,1-1-.59,1.63,1.63,0,0,1-.53-.52Zm0,12.85a11.8,11.8,0,0,0-2.31.21,6.75,6.75,0,0,0-1.81.59,3.77,3.77,0,0,0-1.17.85,1.55,1.55,0,0,0-.42,1v.66a1.53,1.53,0,0,0,.42,1,3.78,3.78,0,0,0,1.17.86,7.12,7.12,0,0,0,1.81.59,12.87,12.87,0,0,0,4.63,0,7.26,7.26,0,0,0,1.81-.59,3.78,3.78,0,0,0,1.17-.86,1.53,1.53,0,0,0,.42-1v-.66a1.55,1.55,0,0,0-.42-1,3.77,3.77,0,0,0-1.17-.85,6.87,6.87,0,0,0-1.81-.59A11.83,11.83,0,0,0,276.49,73.38Z" transform="translate(-55.57 -12.8)" style="fill:url(#무제_그라디언트)"/><path d="M300.63,73.89a10.32,10.32,0,0,0,2.2,1,8.38,8.38,0,0,0,2.47.36,5.75,5.75,0,0,0,2.06-.36A3.76,3.76,0,0,0,309,73.63a6.39,6.39,0,0,0,1.06-2.27,15.24,15.24,0,0,0,.45-3.55,3.45,3.45,0,0,1-.78.92,5.83,5.83,0,0,1-1.19.78,7.09,7.09,0,0,1-1.49.56,6.79,6.79,0,0,1-1.71.21,7.52,7.52,0,0,1-2.7-.48,6.27,6.27,0,0,1-2.16-1.39A6.36,6.36,0,0,1,299,66.23a7.5,7.5,0,0,1-.52-2.88v-.66a7.4,7.4,0,0,1,.54-2.86,6.78,6.78,0,0,1,1.5-2.24,6.66,6.66,0,0,1,2.34-1.47,8.36,8.36,0,0,1,3-.53,7.1,7.1,0,0,1,5.6,2.21q2,2.22,1.95,6.61v1.11a27.48,27.48,0,0,1-.54,6,10.14,10.14,0,0,1-1.61,3.82,5.78,5.78,0,0,1-2.62,2,9.8,9.8,0,0,1-3.56.6,11.37,11.37,0,0,1-2.94-.39,10.23,10.23,0,0,1-2.69-1.14Zm9.78-11a4.78,4.78,0,0,0-1.17-3.37A4.19,4.19,0,0,0,306,58.3a4.63,4.63,0,0,0-3.33,1.17,4.39,4.39,0,0,0-1.21,3.31v.39a4.27,4.27,0,0,0,1.26,3.32,4.59,4.59,0,0,0,3.19,1.14,4.87,4.87,0,0,0,1.82-.33A4.15,4.15,0,0,0,310.08,65a4.23,4.23,0,0,0,.33-1.68Z" transform="translate(-55.57 -12.8)" style="fill:url(#무제_그라디언트)"/><path d="M332.18,68.44q0,4.61-1.89,7.06T324.5,78a6.82,6.82,0,0,1-5.78-2.47q-1.89-2.46-1.89-7V65.07q0-4.57,1.92-7a8,8,0,0,1,11.51,0q1.92,2.46,1.92,7Zm-3-3.4a13,13,0,0,0-.35-3.28,5.3,5.3,0,0,0-1-2,3.4,3.4,0,0,0-1.47-1.05,5.5,5.5,0,0,0-1.84-.3,5.41,5.41,0,0,0-1.81.3,3.37,3.37,0,0,0-1.47,1.07,5.55,5.55,0,0,0-1,2,12.42,12.42,0,0,0-.36,3.27v3.43a12.72,12.72,0,0,0,.36,3.3,5.42,5.42,0,0,0,1,2.06,3.4,3.4,0,0,0,1.47,1,5.41,5.41,0,0,0,1.81.3,5.5,5.5,0,0,0,1.84-.3,3.4,3.4,0,0,0,1.47-1,5.23,5.23,0,0,0,1-2,13.09,13.09,0,0,0,.35-3.31Z" transform="translate(-55.57 -12.8)" style="fill:url(#무제_그라디언트)"/><path d="M348.13,67.45H335.61V54.93h12.52Zm-9.6-2.53h6.68V57.46h-6.68Zm1.62,10.41a3.86,3.86,0,0,1,.59-2,5.41,5.41,0,0,1,1.68-1.69,9.29,9.29,0,0,1,2.68-1.14,15.38,15.38,0,0,1,7.14,0,9.11,9.11,0,0,1,2.67,1.14,5.34,5.34,0,0,1,1.69,1.69,3.86,3.86,0,0,1,.59,2v1.21a3.86,3.86,0,0,1-.59,2,5.24,5.24,0,0,1-1.69,1.69,9.11,9.11,0,0,1-2.67,1.14,15.38,15.38,0,0,1-7.14,0,9.29,9.29,0,0,1-2.68-1.14,5.3,5.3,0,0,1-1.68-1.69,3.86,3.86,0,0,1-.59-2Zm14.12.18a1.89,1.89,0,0,0-.39-1.09,3.49,3.49,0,0,0-1.12-1,7,7,0,0,0-1.76-.69,9.83,9.83,0,0,0-4.66,0,6.87,6.87,0,0,0-1.76.69,3.29,3.29,0,0,0-1.12,1,1.89,1.89,0,0,0-.39,1.09v.85a1.94,1.94,0,0,0,.39,1.1,3.38,3.38,0,0,0,1.12,1,6.87,6.87,0,0,0,1.76.7,10.19,10.19,0,0,0,4.66,0,7,7,0,0,0,1.76-.7,3.59,3.59,0,0,0,1.12-1,1.94,1.94,0,0,0,.39-1.1Zm-.12-5.83V65.25h-4.4V62.69h4.4V59.86h-4.4V57.31h4.4v-4h2.92V69.68Z" transform="translate(-55.57 -12.8)" style="fill:url(#무제_그라디언트)"/><path d="M368.17,55.17a7.6,7.6,0,0,1,2.82.51,5.94,5.94,0,0,1,2.21,1.53,7.38,7.38,0,0,1,1.46,2.53,10.63,10.63,0,0,1,.52,3.49v3.13a10.65,10.65,0,0,1-.52,3.5,7.1,7.1,0,0,1-1.46,2.51A6,6,0,0,1,371,73.89a7.6,7.6,0,0,1-2.82.51,7.51,7.51,0,0,1-2.81-.51,6.07,6.07,0,0,1-2.22-1.52,7.09,7.09,0,0,1-1.45-2.51,10.39,10.39,0,0,1-.53-3.5V63.23a10.43,10.43,0,0,1,.53-3.5,7.09,7.09,0,0,1,1.45-2.53,6.07,6.07,0,0,1,2.22-1.52A7.51,7.51,0,0,1,368.17,55.17Zm0,16.55a4.25,4.25,0,0,0,1.57-.3,3.29,3.29,0,0,0,1.32-1,5.28,5.28,0,0,0,.92-1.79,9.12,9.12,0,0,0,.35-2.7V63.66A9.08,9.08,0,0,0,372,61a5.12,5.12,0,0,0-.93-1.79,3.54,3.54,0,0,0-1.33-1,4.07,4.07,0,0,0-1.55-.3,4.16,4.16,0,0,0-1.56.3,3.25,3.25,0,0,0-1.33,1,5.28,5.28,0,0,0-.92,1.79,9.11,9.11,0,0,0-.34,2.7v2.28a9.15,9.15,0,0,0,.34,2.7,5.28,5.28,0,0,0,.92,1.79,3.25,3.25,0,0,0,1.33,1A4.16,4.16,0,0,0,368.17,71.72Zm11.62,9.33V53.3h3V81.05Z" transform="translate(-55.57 -12.8)" style="fill:url(#무제_그라디언트)"/><path d="M401.25,62.87a3.52,3.52,0,0,1-.72,1.09,18,18,0,0,1-1.3,1.32c-.62.58-1.34,1.22-2.16,1.91s-1.64,1.36-2.44,2l-1.78-2.1c1-.74,1.88-1.49,2.76-2.23s1.57-1.37,2.09-1.9a9.84,9.84,0,0,0,.95-1.09,5.6,5.6,0,0,0,.6-1.09,5.07,5.07,0,0,0,.31-1.19,10,10,0,0,0,.09-1.41V54.54h3v3.52c0,.46,0,.88,0,1.25a4.91,4.91,0,0,0,.19,1,3.6,3.6,0,0,0,.47.94,5.24,5.24,0,0,0,.86,1c.7.64,1.47,1.31,2.3,2s1.7,1.34,2.6,2l-1.74,2.08c-.78-.58-1.53-1.17-2.24-1.76L403,64.74a10.78,10.78,0,0,1-1.12-1,3.5,3.5,0,0,1-.59-.82Zm-2.86,12.46a3.93,3.93,0,0,1,.57-2,5.23,5.23,0,0,1,1.66-1.69,9,9,0,0,1,2.63-1.14,14.84,14.84,0,0,1,7,0,9,9,0,0,1,2.64,1.14,5.3,5.3,0,0,1,1.65,1.69,3.93,3.93,0,0,1,.57,2v1.21a3.93,3.93,0,0,1-.57,2,5.2,5.2,0,0,1-1.65,1.69,9,9,0,0,1-2.64,1.14,14.84,14.84,0,0,1-7,0,9,9,0,0,1-2.63-1.14A5.13,5.13,0,0,1,399,78.58a3.93,3.93,0,0,1-.57-2Zm13.81.18a1.93,1.93,0,0,0-.37-1.09,3.17,3.17,0,0,0-1.09-1,6.77,6.77,0,0,0-1.71-.69,9.38,9.38,0,0,0-4.55,0,6.77,6.77,0,0,0-1.71.69,3.23,3.23,0,0,0-1.08,1,1.87,1.87,0,0,0-.38,1.09v.85a1.92,1.92,0,0,0,.38,1.1,3.31,3.31,0,0,0,1.08,1,6.77,6.77,0,0,0,1.71.7,9.72,9.72,0,0,0,4.55,0,6.77,6.77,0,0,0,1.71-.7,3.25,3.25,0,0,0,1.09-1,2,2,0,0,0,.37-1.1ZM419,62.6H415v7.08h-2.95V53.3H415V60H419Z" transform="translate(-55.57 -12.8)" style="fill:url(#무제_그라디언트)"/><path d="M427,80.21V70.73c-1.1,0-2.26.06-3.47.06h-3.87V68.2c2,0,3.81,0,5.46,0s3.21,0,4.65-.1,2.82-.12,4.11-.2,2.56-.18,3.81-.3l.24,2.5c-1.27.14-2.54.25-3.81.34s-2.63.17-4.08.23v9.57Zm1.39-14.33a9.36,9.36,0,0,1-3-.45,7.5,7.5,0,0,1-2.27-1.19,5.47,5.47,0,0,1-1.45-1.71,4.39,4.39,0,0,1-.51-2.06V59.26a4.51,4.51,0,0,1,.5-2.06,5.29,5.29,0,0,1,1.43-1.72,7.48,7.48,0,0,1,2.27-1.18,10.18,10.18,0,0,1,6.05,0,7.48,7.48,0,0,1,2.27,1.18,5.16,5.16,0,0,1,1.43,1.72,4.51,4.51,0,0,1,.5,2.06v1.21a4.39,4.39,0,0,1-.51,2.06,5.22,5.22,0,0,1-1.45,1.71,7.5,7.5,0,0,1-2.27,1.19A9.34,9.34,0,0,1,428.4,65.88Zm0-2.59a5.34,5.34,0,0,0,3.14-.85,2.59,2.59,0,0,0,1.22-2.19v-.78a2.56,2.56,0,0,0-1.22-2.21,6.37,6.37,0,0,0-6.29,0A2.56,2.56,0,0,0,424,59.47v.78a2.59,2.59,0,0,0,1.22,2.19A5.35,5.35,0,0,0,428.4,63.29Zm11,17.76V53.3h2.95V81.05Z" transform="translate(-55.57 -12.8)" style="fill:url(#무제_그라디언트)"/><path d="M452.32,71.3V66.24c-1,0-2,.06-3.16.06h-3.7V63.75h3.6c1.09,0,2.11,0,3.05,0l2.65-.06c.82,0,1.62,0,2.38-.09A22.61,22.61,0,0,0,457.5,61c.08-.93.12-1.83.12-2.69V57.15h-10V54.6h12.91V58c0,.84,0,1.72-.12,2.65s-.19,1.82-.33,2.71l3.07-.28.24,2.47c-1.32.14-2.62.26-3.9.35s-2.69.16-4.26.22V71.3Zm.58,6.92h15.77v2.56H449.92v-8h3Zm12.28-3.52V70.52h-5.87V68h5.87V53.3h2.94V74.7Z" transform="translate(-55.57 -12.8)" style="fill:url(#무제_그라디언트)"/><path d="M482.66,58.54H475V71h1.53c.68,0,1.33,0,1.93,0s1.19,0,1.77-.09,1.19-.1,1.81-.17,1.28-.16,2-.28l.3,2.5c-.78.12-1.52.22-2.2.31s-1.35.16-2,.21-1.33.09-2,.11-1.4,0-2.18,0H472V56h10.68ZM495,81.05h-2.92V65.55h-3.28V79.7h-2.92V53.87h2.92V63h3.28V53.3H495Z" transform="translate(-55.57 -12.8)" style="fill:url(#무제_그라디언트)"/><path d="M505,66.73h2.83V57.46h-2.65V55h15.14v2.44h-2.61v9.06l1.82-.12,1.82-.16.21,2.38q-1.41.12-2.82.21c-.93.06-2,.12-3.25.17s-2.69.08-4.36.1l-6.13.06Zm8.1,11.43H528v2.59H510.08V71.87h3Zm1.75-11.52V57.46h-4.16v9.27Zm9.69,6.71v-8h-4.13V62.75h4.13V60.62h-4.13V58.06h4.13V53.3h2.92v20Z" transform="translate(-55.57 -12.8)" style="fill:url(#무제_그라디언트)"/><path d="M538.22,54.27a8.14,8.14,0,0,1,3,.51,6.25,6.25,0,0,1,2.15,1.34,5.46,5.46,0,0,1,1.3,1.86,5.37,5.37,0,0,1,.44,2.09v1.15a5.37,5.37,0,0,1-.44,2.09,5.59,5.59,0,0,1-1.3,1.87,6.56,6.56,0,0,1-2.15,1.34,9.14,9.14,0,0,1-6,0,6.67,6.67,0,0,1-2.15-1.34,5.71,5.71,0,0,1-1.29-1.87,5.37,5.37,0,0,1-.44-2.09V60.07a5.37,5.37,0,0,1,.44-2.09,5.57,5.57,0,0,1,1.29-1.86,6.35,6.35,0,0,1,2.15-1.34A8.22,8.22,0,0,1,538.22,54.27Zm0,10.2a4.59,4.59,0,0,0,1.72-.3,4,4,0,0,0,1.26-.78A3.75,3.75,0,0,0,542,62.3a3,3,0,0,0,.27-1.23v-.85A3,3,0,0,0,542,59a3.42,3.42,0,0,0-.79-1.07,4.33,4.33,0,0,0-1.26-.77,5.05,5.05,0,0,0-3.43,0,4.39,4.39,0,0,0-1.27.77,3.24,3.24,0,0,0-.78,1.07,3,3,0,0,0-.27,1.23v.85a3,3,0,0,0,.27,1.23,3.54,3.54,0,0,0,.78,1.09,4,4,0,0,0,1.27.78A4.57,4.57,0,0,0,538.22,64.47ZM553.12,69v12.1h-17.3V69h2.94v3.46h11.41V69Zm-3,9.57V74.91H538.76v3.61Zm0-10.92V53.3h3V67.6Z" transform="translate(-55.57 -12.8)" style="fill:url(#무제_그라디언트)"/><path d="M572.26,58.69H556.34v-2.5h6.5V52.94h2.95v3.25h6.47Zm-7.94,10.5a9.66,9.66,0,0,1-3.06-.42,6.15,6.15,0,0,1-2-1,3.72,3.72,0,0,1-1.08-1.42,3.84,3.84,0,0,1-.33-1.5V64a3.9,3.9,0,0,1,1.41-2.94,5.79,5.79,0,0,1,2-1,10,10,0,0,1,3.06-.41,9.64,9.64,0,0,1,3,.42,6.24,6.24,0,0,1,2,1.06,3.69,3.69,0,0,1,1.09,1.41,3.89,3.89,0,0,1,.33,1.51v.78a3.84,3.84,0,0,1-.33,1.5,3.65,3.65,0,0,1-1.09,1.42,6,6,0,0,1-2,1A9.64,9.64,0,0,1,564.32,69.19Zm0-2.37a5.68,5.68,0,0,0,1.74-.23,3.66,3.66,0,0,0,1.12-.56,2,2,0,0,0,.6-.7,1.66,1.66,0,0,0,.18-.71V64.2a1.82,1.82,0,0,0-.17-.69,1.86,1.86,0,0,0-.58-.73,3.61,3.61,0,0,0-1.13-.55,6.85,6.85,0,0,0-3.52,0,3.5,3.5,0,0,0-1.13.55,1.89,1.89,0,0,0-.59.73,1.79,1.79,0,0,0-.16.69v.42a1.66,1.66,0,0,0,.18.71,2,2,0,0,0,.6.7,3.59,3.59,0,0,0,1.11.56A5.75,5.75,0,0,0,564.32,66.82Zm13.6,3.55V81.05H561V70.37h3V73.2h11V70.37ZM575,78.52V75.7H564v2.82Zm6.89-16h-3.94V69H575V53.3h2.95v6.59h3.94Z" transform="translate(-55.57 -12.8)" style="fill:url(#무제_그라디언트)"/><path d="M592.79,57.46h-8.85V54.93h11.77v4.36a8,8,0,0,1-.51,3,6.38,6.38,0,0,1-1.82,2.39,18,18,0,0,1-3.6,2.28c-1.53.76-3.47,1.64-5.84,2.65l-1.14-2.38c2.12-.89,3.84-1.66,5.14-2.34A16.18,16.18,0,0,0,591,63a4.6,4.6,0,0,0,1.45-1.82,5.69,5.69,0,0,0,.36-2.09ZM586.8,71h18.27V81.32h-3V73.56H586.8Zm15.35-1.44V65.64h-5.36V63.08h5.36V59.92h-4.91V57.37h4.91V53.3h2.92V69.56Z" transform="translate(-55.57 -12.8)" style="fill:url(#무제_그라디언트)"/><path d="M610.37,75.39h3.43v3.47h-3.43Zm.45-3.1-.42-17.54h3.37l-.42,17.54Z" transform="translate(-55.57 -12.8)" style="fill:url(#무제_그라디언트)"/><text transform="translate(41.85 64.04)" style="font-size:30.09808349609375px;fill:#231815;font-family:NanumSquare_acB, NanumSquare_ac">특별반 100명중 90명이 상위권대 편입합격!</text><text transform="translate(41.85 64.04)" style="font-size:30.09808349609375px;fill:none;stroke:#231815;stroke-miterlimit:10;stroke-width:0.5px;font-family:NanumSquare_acB, NanumSquare_ac">특별반 100명중 90명이 상위권대 편입합격!</text><path d="M171.48,88v45.8h-19.3a7.54,7.54,0,0,1-5.3-1.68q-1.83-1.68-1.83-5.16v-8.12h6.38v6.38a2.47,2.47,0,0,0,.49,1.8,2.71,2.71,0,0,0,1.83.46h11.13v-17h-2.67v6.2H140.82v-6.32h2.67V94.7H140.7V88.38h21.45v5.91h2.73V88ZM152.93,94.7h-3.42v15.65h3.42Zm6,15.65h2.38v-5.91h3.54v-4.18h-3.54V94.7H159Zm17.62-12.58a9.82,9.82,0,0,1,2.73-7.36,10.7,10.7,0,0,1,14.14,0,9.82,9.82,0,0,1,2.73,7.36v6.67a9.92,9.92,0,0,1-2.73,7.39,10.61,10.61,0,0,1-14.14,0,9.92,9.92,0,0,1-2.73-7.39ZM187,119.28h13.51v-3H207v11a8.53,8.53,0,0,1-.55,3.3,4.53,4.53,0,0,1-1.54,2,6.11,6.11,0,0,1-2.29,1,14.93,14.93,0,0,1-2.87.26H188.24a17.61,17.61,0,0,1-3.11-.26,6.17,6.17,0,0,1-2.43-1,4.76,4.76,0,0,1-1.59-2,8,8,0,0,1-.58-3.3v-11H187Zm-3.77-14.78a3.85,3.85,0,0,0,1,3,3.16,3.16,0,0,0,2.14.87,3.2,3.2,0,0,0,2.15-.87,3.88,3.88,0,0,0,1-3V97.77a3.88,3.88,0,0,0-1-3,3.2,3.2,0,0,0-2.15-.87,3.16,3.16,0,0,0-2.14.87,3.85,3.85,0,0,0-1,3Zm17.28,20.23H187v1.21a3.37,3.37,0,0,0,.17,1.22,1,1,0,0,0,.52.55,2.26,2.26,0,0,0,.87.15H198.9a2.19,2.19,0,0,0,.87-.15,1.05,1.05,0,0,0,.55-.55,2.73,2.73,0,0,0,.21-1.22ZM207,88v26.5h-6.61V88Zm4.52,7.08H232.7v6.08h-2.15a10.79,10.79,0,0,1,.55,1.83,9,9,0,0,1,.21,1.94v2.26a11,11,0,0,1-.7,4,7.95,7.95,0,0,1-4.87,4.75,10.55,10.55,0,0,1-3.65.61,9.45,9.45,0,0,1-6.61-2.37q-2.61-2.38-2.61-7V105a10,10,0,0,1,.7-3.77h-2Zm23.53,23q3.48,0,4.93,1.45t1.45,4.64v9.62h-6.67v-7.31a3,3,0,0,0-.43-1.85c-.29-.35-1-.52-2-.52H215.19v-6Zm-6.49-31v6.26h-13.1V87.16Zm-9,19.31q0,3.94,2.55,3.94t2.61-3.94v-1.34a4.89,4.89,0,0,0-.64-2.66,2.18,2.18,0,0,0-2-1q-2.55,0-2.55,3.65ZM241.45,88v11.6h3.36V106h-3.36v10.66h-6.67V88Zm15.65,45.8q-7.19,0-7.19-6.84v-6.73h5.8v-3.42h-7.88v-6.31h22.43v6.31h-8.12v3.83h-5.85v4.58a2.47,2.47,0,0,0,.49,1.8,2.71,2.71,0,0,0,1.83.46h12.75v-2.72H264v-6.27h7.36V88H278v45.8Zm-8.52-36.35a10.47,10.47,0,0,1,.78-4.14,8.91,8.91,0,0,1,2.12-3.07,8.72,8.72,0,0,1,3.19-1.89,12.46,12.46,0,0,1,4.05-.64,12.61,12.61,0,0,1,4,.64A8.69,8.69,0,0,1,266,90.27a9.05,9.05,0,0,1,2.12,3.07,10.47,10.47,0,0,1,.78,4.14V99.4a10.41,10.41,0,0,1-.78,4.17,9.46,9.46,0,0,1-2.12,3.07,8.47,8.47,0,0,1-3.22,1.91,12.33,12.33,0,0,1-4,.64,12.2,12.2,0,0,1-4.05-.64,8.5,8.5,0,0,1-3.19-1.91,9.31,9.31,0,0,1-2.12-3.07,10.41,10.41,0,0,1-.78-4.17Zm6.61,1.92a3.92,3.92,0,0,0,.35,1.76,3,3,0,0,0,.87,1.13,3.12,3.12,0,0,0,1.13.58,4.13,4.13,0,0,0,1.18.18,4.45,4.45,0,0,0,1.22-.18,3.17,3.17,0,0,0,1.16-.58,2.75,2.75,0,0,0,.84-1.13,4.39,4.39,0,0,0,.32-1.76V97.48a3.94,3.94,0,0,0-.35-1.74,3.13,3.13,0,0,0-.87-1.1,3.28,3.28,0,0,0-1.13-.58,4.22,4.22,0,0,0-2.37,0,3.28,3.28,0,0,0-1.13.58,3.13,3.13,0,0,0-.87,1.1,3.8,3.8,0,0,0-.35,1.74Zm41.21-2.79,9.86-8.4h5.44v42.6H305V97l-5,3.88Zm30.84,37.22V123H319.7v-6.32h21.92V123h-7.71v10.84Zm-6.72-36.06a11.3,11.3,0,0,1,.75-4.2,8.69,8.69,0,0,1,2.11-3.16,9.66,9.66,0,0,1,3.19-2,11.86,11.86,0,0,1,8,0,9.5,9.5,0,0,1,3.22,2,8.57,8.57,0,0,1,2.11,3.16,11.1,11.1,0,0,1,.76,4.2V105a11.27,11.27,0,0,1-.76,4.26,8.85,8.85,0,0,1-2.11,3.19,9.41,9.41,0,0,1-3.22,2,12,12,0,0,1-8,0,9.58,9.58,0,0,1-3.19-2,9,9,0,0,1-2.11-3.19,11.47,11.47,0,0,1-.75-4.26Zm6.66,7.25a4.79,4.79,0,0,0,.32,1.85,3.75,3.75,0,0,0,.81,1.25,2.9,2.9,0,0,0,1.1.7,4,4,0,0,0,1.19.2,3.66,3.66,0,0,0,2.29-.9A3.72,3.72,0,0,0,334,105V97.77A4.62,4.62,0,0,0,333.7,96a3.43,3.43,0,0,0-.81-1.22,3,3,0,0,0-1.1-.67,3.91,3.91,0,0,0-1.19-.2,4,4,0,0,0-1.19.2,3.08,3.08,0,0,0-1.1.67A3.43,3.43,0,0,0,327.5,96a4.62,4.62,0,0,0-.32,1.79Zm22.49-17v45.8H343V88ZM377.84,90c3.33,0,5.74.81,7.25,2.43s2.26,4,2.26,7.19v1.8a11.28,11.28,0,0,1-1,5.13,6.9,6.9,0,0,1-3,2.92,6.3,6.3,0,0,1,3.56,3,11.61,11.61,0,0,1,1,5.22v3.94q0,4.8-2.58,7t-7.39,2.2H367.35V90Zm-3.53,6.31v10.38h2.43a3.34,3.34,0,0,0,2.73-1.19,5.83,5.83,0,0,0,1-3.74V100.5c0-2.82-1.06-4.24-3.19-4.24Zm0,16.7V124.5h3.13a3.88,3.88,0,0,0,2.58-.85,3.7,3.7,0,0,0,1-3v-2.73a6.19,6.19,0,0,0-.93-3.76,3.54,3.54,0,0,0-3-1.22Zm30.61,5.68a4.11,4.11,0,0,0-.87-3,3.54,3.54,0,0,0-2.61-.86h-2.09v16h-7V90h9.51q4.82,0,7.48,2.58t2.67,7.5v4.7c0,3.52-1,6.14-3.08,7.88a4.69,4.69,0,0,1,2.23,2.32,10.31,10.31,0,0,1,.67,4.12v11.76h-6.95Zm-5.57-10.14h2.38a3.5,3.5,0,0,0,2.4-.84,3.66,3.66,0,0,0,1-2.87V100a3.63,3.63,0,0,0-1-2.92,3.67,3.67,0,0,0-2.4-.79h-2.38Zm17.27-9.16q0-4.94,2.79-7.6a10.44,10.44,0,0,1,7.53-2.66,10.59,10.59,0,0,1,7.57,2.66q2.81,2.67,2.81,7.6v22.08q0,4.93-2.81,7.6a10.55,10.55,0,0,1-7.57,2.66,10.4,10.4,0,0,1-7.53-2.66q-2.79-2.67-2.79-7.6Zm7,21.85a4.64,4.64,0,0,0,.9,3.22,3.2,3.2,0,0,0,2.46,1,3.28,3.28,0,0,0,2.52-1,4.64,4.64,0,0,0,.9-3.22v-22a4.64,4.64,0,0,0-.9-3.22,3.32,3.32,0,0,0-2.52-1,3.24,3.24,0,0,0-2.46,1,4.64,4.64,0,0,0-.9,3.22ZM461.72,90V121.6q0,4.92-2.58,7.59a9.63,9.63,0,0,1-7.27,2.67c-3.17,0-5.62-.89-7.33-2.67S442,124.88,442,121.6V90h6.84V122a4,4,0,0,0,.87,2.9,3.2,3.2,0,0,0,2.37.87,3,3,0,0,0,2.32-.87,4.19,4.19,0,0,0,.81-2.9V90Zm5,40.86V90h8.69l6.73,30.37V90h6.2v40.86h-6.09a2.91,2.91,0,0,1-1.94-.66,6.49,6.49,0,0,1-1.42-3.05L473,101.19v29.62Zm45.68-34.55v10.32h9.39v6.32h-9.39v7.94a4.28,4.28,0,0,0,.72,2.9,3.81,3.81,0,0,0,2.75.76h7.42v6.31h-9q-4.75,0-6.81-2.23T505.43,121V90H523v6.31Zm15,34.55V90h10.78a12,12,0,0,1,4.47.75,7.26,7.26,0,0,1,3,2.15,8.54,8.54,0,0,1,1.65,3.36,17.06,17.06,0,0,1,.53,4.4v19.48a17.32,17.32,0,0,1-.53,4.46,8.65,8.65,0,0,1-1.65,3.37,7.33,7.33,0,0,1-3,2.14,12,12,0,0,1-4.47.75Zm9.8-6.31q3.65,0,3.65-4.41v-18.9a6.35,6.35,0,0,0-.9-3.56,3.07,3.07,0,0,0-2.75-1.37H534.3V124.5ZM572.27,90V121.6q0,4.92-2.58,7.59a9.66,9.66,0,0,1-7.28,2.67q-4.75,0-7.33-2.67t-2.58-7.59V90h6.84V122a4,4,0,0,0,.87,2.9,3.21,3.21,0,0,0,2.38.87,3,3,0,0,0,2.31-.87,4.19,4.19,0,0,0,.82-2.9V90Z" transform="translate(-55.57 -12.8)" style="fill:url(#무제_그라디언트_29)"/><text transform="translate(92.98 139.51)" style="opacity:0.42;font-size:9.961385726928711px;fill:#231815;font-family:NanumSquare_acB, NanumSquare_ac"><tspan xml:space="preserve">[90%]2016년 12월 특별반 등록생 기준 25명중 25명 합격/2017년 12월 특별반 등록생  기준 20명 중 18명 합격</tspan><tspan x="56.09" y="10.13">[1위] 한경비즈니스 선정 2020 한국품질만족도 교육(온,오프라인) 부문 1위 브라운에듀</tspan></text></svg>